# Blender 4.1.1
# www.blender.org
mtllib Player.mtl
o 立方体.002
v 0.875209 -0.126328 0.344437
v 0.875209 0.562545 0.344437
v 0.875209 -0.126328 -0.344437
v 0.875209 0.562545 -0.344437
v 1.850491 -0.126328 0.344437
v 1.850491 0.562545 0.344437
v 1.850491 -0.126328 -0.344437
v 1.850491 0.562545 -0.344437
v 1.000000 1.000000 -1.000000
v 1.000000 -1.000000 -1.000000
v 1.000000 1.000000 1.000000
v 1.000000 -1.000000 1.000000
v -1.000000 1.000000 -1.000000
v -1.000000 -1.000000 -1.000000
v -1.000000 1.000000 1.000000
v -1.000000 -1.000000 1.000000
v -0.909810 -1.314023 1.077423
v -0.909810 -1.146978 1.077423
v -0.909810 -1.314023 -0.612059
v -0.909810 -0.883119 -0.612059
v -0.149580 -1.314023 1.077423
v -0.149580 -1.146978 1.077423
v -0.149580 -1.314023 -0.612059
v -0.149580 -0.883119 -0.612059
v 0.157842 -1.314023 1.077423
v 0.157842 -1.146978 1.077423
v 0.157842 -1.314023 -0.612058
v 0.157842 -0.883119 -0.612058
v 0.918072 -1.314023 1.077423
v 0.918072 -1.146978 1.077423
v 0.918072 -1.314023 -0.612058
v 0.918072 -0.883119 -0.612058
v -1.864423 -0.126328 0.344437
v -1.864423 0.562545 0.344437
v -1.864423 -0.126328 -0.344437
v -1.864423 0.562545 -0.344437
v -0.889142 -0.126328 0.344437
v -0.889142 0.562545 0.344437
v -0.889142 -0.126328 -0.344437
v -0.889142 0.562545 -0.344437
vn -1.0000 -0.0000 -0.0000
vn -0.0000 -0.0000 -1.0000
vn 1.0000 -0.0000 -0.0000
vn -0.0000 -0.0000 1.0000
vn -0.0000 -1.0000 -0.0000
vn -0.0000 1.0000 -0.0000
vn -0.0000 0.9880 0.1543
vt 0.625000 0.000000
vt 0.375000 0.250000
vt 0.375000 0.000000
vt 0.625000 0.250000
vt 0.375000 0.500000
vt 0.625000 0.500000
vt 0.375000 0.750000
vt 0.625000 0.750000
vt 0.375000 1.000000
vt 0.125000 0.750000
vt 0.125000 0.500000
vt 0.875000 0.500000
vt 0.000000 0.000000
vt 0.625000 1.000000
vt 0.875000 0.750000
s 0
usemtl Material
f 2/1/1 3/2/1 1/3/1
f 4/4/2 7/5/2 3/2/2
f 8/6/3 5/7/3 7/5/3
f 6/8/4 1/9/4 5/7/4
f 7/5/5 1/10/5 3/11/5
f 4/12/6 6/8/6 8/6/6
f 13/13/6 11/13/6 9/13/6
f 11/13/4 16/13/4 12/13/4
f 15/13/1 14/13/1 16/13/1
f 10/13/5 16/13/5 14/13/5
f 9/13/3 12/13/3 10/13/3
f 13/13/2 10/13/2 14/13/2
f 18/1/1 19/2/1 17/3/1
f 20/4/2 23/5/2 19/2/2
f 23/5/3 22/8/3 21/7/3
f 22/8/4 17/9/4 21/7/4
f 23/5/5 17/10/5 19/11/5
f 20/12/7 22/8/7 24/6/7
f 26/1/1 27/2/1 25/3/1
f 28/4/2 31/5/2 27/2/2
f 31/5/3 30/8/3 29/7/3
f 30/8/4 25/9/4 29/7/4
f 31/5/5 25/10/5 27/11/5
f 28/12/7 30/8/7 32/6/7
f 34/1/1 35/2/1 33/3/1
f 36/4/2 39/5/2 35/2/2
f 40/6/3 37/7/3 39/5/3
f 38/8/4 33/9/4 37/7/4
f 39/5/5 33/10/5 35/11/5
f 36/12/6 38/8/6 40/6/6
f 2/1/1 4/4/1 3/2/1
f 4/4/2 8/6/2 7/5/2
f 8/6/3 6/8/3 5/7/3
f 6/8/4 2/14/4 1/9/4
f 7/5/5 5/7/5 1/10/5
f 4/12/6 2/15/6 6/8/6
f 13/13/6 15/13/6 11/13/6
f 11/13/4 15/13/4 16/13/4
f 15/13/1 13/13/1 14/13/1
f 10/13/5 12/13/5 16/13/5
f 9/13/3 11/13/3 12/13/3
f 13/13/2 9/13/2 10/13/2
f 18/1/1 20/4/1 19/2/1
f 20/4/2 24/6/2 23/5/2
f 23/5/3 24/6/3 22/8/3
f 22/8/4 18/14/4 17/9/4
f 23/5/5 21/7/5 17/10/5
f 20/12/7 18/15/7 22/8/7
f 26/1/1 28/4/1 27/2/1
f 28/4/2 32/6/2 31/5/2
f 31/5/3 32/6/3 30/8/3
f 30/8/4 26/14/4 25/9/4
f 31/5/5 29/7/5 25/10/5
f 28/12/7 26/15/7 30/8/7
f 34/1/1 36/4/1 35/2/1
f 36/4/2 40/6/2 39/5/2
f 40/6/3 38/8/3 37/7/3
f 38/8/4 34/14/4 33/9/4
f 39/5/5 37/7/5 33/10/5
f 36/12/6 34/15/6 38/8/6
