# Blender 4.1.1
# www.blender.org
mtllib prediction.mtl
o Cube.001
v -1.000000 -0.000000 0.000000
v -0.000000 0.293590 0.000000
v -0.000000 0.000000 -0.195225
v 0.000000 -0.000000 0.195225
v 0.000000 -0.293590 -0.000000
v 0.328028 0.000000 0.000000
vn -0.1605 0.5465 0.8219
vn 1.0000 -0.0000 -0.0000
vn -0.1605 -0.5465 0.8219
vn -0.1605 -0.5465 -0.8219
vn -0.1605 0.5465 -0.8219
vn 0.4440 -0.4961 -0.7461
vn 0.4440 -0.4961 0.7461
vn 0.4440 0.4961 0.7461
vn 0.4440 0.4961 -0.7461
vt 0.875000 0.500000
vt 0.875000 0.750000
vt 0.625000 0.750000
vt 0.375000 0.750000
vt 0.625000 1.000000
vt 0.375000 1.000000
vt 0.375000 0.000000
vt 0.625000 0.000000
vt 0.375000 0.250000
vt 0.375000 0.500000
vt 0.125000 0.750000
vt 0.625000 0.500000
s 0
usemtl Material.002
f 1/1/1 4/2/1 2/3/1
f 3/4/2 4/5/2 5/6/2
f 5/7/3 4/8/3 1/9/3
f 1/10/4 3/4/4 5/11/4
f 1/12/5 2/3/5 3/4/5
f 3/4/2 2/3/2 4/5/2
usemtl Material.001
f 6/1/6 5/2/6 3/3/6
f 4/7/7 5/8/7 6/9/7
f 6/10/8 2/4/8 4/11/8
f 6/12/9 3/3/9 2/4/9
