# Blender 4.2.3 LTS
# www.blender.org
mtllib boss_body.mtl
o boss
v -2.800000 -3.500000 1.400000
v -2.800000 3.500000 1.400000
v -2.800000 -3.500000 -1.400000
v -2.800000 3.500000 -1.400000
v 2.800000 -3.500000 1.400000
v 2.800000 3.500000 1.400000
v 2.800000 -3.500000 -1.400000
v 2.800000 3.500000 -1.400000
v -2.100000 4.875226 2.100000
v -2.100000 9.075226 2.100000
v -2.100000 4.875226 -2.100000
v -2.100000 9.075226 -2.100000
v 2.100000 4.875226 2.100000
v 2.100000 9.075226 2.100000
v 2.100000 4.875226 -2.100000
v 2.100000 9.075226 -2.100000
vn -1.0000 -0.0000 -0.0000
vn -0.0000 -0.0000 -1.0000
vn 1.0000 -0.0000 -0.0000
vn -0.0000 -0.0000 1.0000
vn -0.0000 -1.0000 -0.0000
vn -0.0000 1.0000 -0.0000
vt 0.252999 0.038794
vt 0.145540 0.146254
vt 0.145540 0.038794
vt 0.252999 0.146254
vt 0.145540 0.253713
vt 0.252999 0.253713
vt 0.145540 0.361172
vt 0.252999 0.361172
vt 0.145540 0.468631
vt 0.038081 0.361172
vt 0.038081 0.253713
vt 0.360458 0.253713
vt 0.744356 0.126836
vt 0.540060 0.331132
vt 0.540060 0.126836
vt 0.744356 0.331132
vt 0.540060 0.535428
vt 0.744356 0.535428
vt 0.540060 0.739724
vt 0.744356 0.739724
vt 0.540060 0.944020
vt 0.335764 0.739724
vt 0.335764 0.535428
vt 0.948652 0.535428
vt 0.252999 0.468631
vt 0.360458 0.361172
vt 0.744356 0.944020
vt 0.948652 0.739724
s 0
usemtl boss_body
f 2/1/1 3/2/1 1/3/1
f 4/4/2 7/5/2 3/2/2
f 8/6/3 5/7/3 7/5/3
f 6/8/4 1/9/4 5/7/4
f 7/5/5 1/10/5 3/11/5
f 4/12/6 6/8/6 8/6/6
f 10/13/1 11/14/1 9/15/1
f 12/16/2 15/17/2 11/14/2
f 16/18/3 13/19/3 15/17/3
f 14/20/4 9/21/4 13/19/4
f 15/17/5 9/22/5 11/23/5
f 12/24/6 14/20/6 16/18/6
f 2/1/1 4/4/1 3/2/1
f 4/4/2 8/6/2 7/5/2
f 8/6/3 6/8/3 5/7/3
f 6/8/4 2/25/4 1/9/4
f 7/5/5 5/7/5 1/10/5
f 4/12/6 2/26/6 6/8/6
f 10/13/1 12/16/1 11/14/1
f 12/16/2 16/18/2 15/17/2
f 16/18/3 14/20/3 13/19/3
f 14/20/4 10/27/4 9/21/4
f 15/17/5 13/19/5 9/22/5
f 12/24/6 10/28/6 14/20/6
