# Blender 4.2.3 LTS
# www.blender.org
mtllib boss_body.mtl
o boss
v 3.147838 10.091015 -3.147839
v 3.147838 16.386692 -3.147839
v 3.147838 10.091015 3.147837
v -3.147838 16.386692 -3.147839
v -3.147838 10.091015 -3.147839
v -3.147838 10.091015 3.147837
v 3.147838 16.386692 3.147837
v -3.147838 16.386692 3.147837
v 3.925502 -4.614778 -2.799999
v 3.925502 9.385222 -2.800000
v 3.925502 -4.614778 2.800000
v -3.925502 9.385222 -2.800000
v -3.925502 -4.614778 -2.799999
v -3.925502 -4.614778 2.800000
v 3.925502 9.385222 2.799999
v -3.925502 9.385222 2.799999
vn -0.0000 -0.0000 -1.0000
vn 1.0000 -0.0000 -0.0000
vn -0.0000 -1.0000 -0.0000
vn -0.0000 -0.0000 1.0000
vn -1.0000 -0.0000 -0.0000
vn -0.0000 1.0000 -0.0000
vt 0.744356 0.739724
vt 0.744356 0.944020
vt 0.540060 0.944020
vt 0.744356 0.126836
vt 0.540060 0.331132
vt 0.540060 0.126836
vt 0.540060 0.535428
vt 0.335764 0.739724
vt 0.335764 0.535428
vt 0.540060 0.739724
vt 0.744356 0.331132
vt 0.744356 0.535428
vt 0.948652 0.535428
vt 0.948652 0.739724
vt 0.252999 0.361172
vt 0.252999 0.468631
vt 0.145540 0.468631
vt 0.252999 0.038794
vt 0.145540 0.146254
vt 0.145540 0.038794
vt 0.145540 0.253713
vt 0.038081 0.361172
vt 0.038081 0.253713
vt 0.145540 0.361172
vt 0.252999 0.146254
vt 0.252999 0.253713
vt 0.360458 0.253713
vt 0.360458 0.361172
s 0
usemtl boss_body
f 4/1/1 2/2/1 1/3/1
f 2/4/2 3/5/2 1/6/2
f 6/7/3 1/8/3 3/9/3
f 4/1/1 1/3/1 5/10/1
f 6/7/3 5/10/3 1/8/3
f 7/11/4 8/12/4 6/7/4
f 7/11/4 6/7/4 3/5/4
f 8/12/5 5/10/5 6/7/5
f 8/12/5 4/1/5 5/10/5
f 7/13/6 4/1/6 8/12/6
f 2/4/2 7/11/2 3/5/2
f 7/13/6 2/14/6 4/1/6
f 12/15/1 10/16/1 9/17/1
f 10/18/2 11/19/2 9/20/2
f 14/21/3 9/22/3 11/23/3
f 12/15/1 9/17/1 13/24/1
f 14/21/3 13/24/3 9/22/3
f 15/25/4 16/26/4 14/21/4
f 15/25/4 14/21/4 11/19/4
f 16/26/5 13/24/5 14/21/5
f 16/26/5 12/15/5 13/24/5
f 15/27/6 12/15/6 16/26/6
f 10/18/2 15/25/2 11/19/2
f 15/27/6 10/28/6 12/15/6
