{
	"asset":{
		"generator":"Khronos glTF Blender I/O v4.1.63",
		"version":"2.0"
	},
	"scene":0,
	"scenes":[
		{
			"name":"Scene",
			"nodes":[
				4
			]
		}
	],
	"nodes":[
		{
			"name":"\u30dc\u30fc\u30f3.002",
			"translation":[
				0,
				1.1710231304168701,
				0
			]
		},
		{
			"children":[
				0
			],
			"name":"\u30dc\u30fc\u30f3.001",
			"translation":[
				0,
				1,
				0
			]
		},
		{
			"children":[
				1
			],
			"name":"\u30dc\u30fc\u30f3"
		},
		{
			"mesh":0,
			"name":"\u7acb\u65b9\u4f53.007",
			"skin":0
		},
		{
			"children":[
				3,
				2
			],
			"name":"Armature",
			"scale":[
				3.7726433277130127,
				3.7726433277130127,
				3.7726433277130127
			]
		}
	],
	"animations":[
		{
			"channels":[
				{
					"sampler":0,
					"target":{
						"node":2,
						"path":"translation"
					}
				},
				{
					"sampler":1,
					"target":{
						"node":2,
						"path":"rotation"
					}
				},
				{
					"sampler":2,
					"target":{
						"node":2,
						"path":"scale"
					}
				},
				{
					"sampler":3,
					"target":{
						"node":1,
						"path":"translation"
					}
				},
				{
					"sampler":4,
					"target":{
						"node":1,
						"path":"rotation"
					}
				},
				{
					"sampler":5,
					"target":{
						"node":1,
						"path":"scale"
					}
				},
				{
					"sampler":6,
					"target":{
						"node":0,
						"path":"translation"
					}
				},
				{
					"sampler":7,
					"target":{
						"node":0,
						"path":"rotation"
					}
				},
				{
					"sampler":8,
					"target":{
						"node":0,
						"path":"scale"
					}
				}
			],
			"name":"Barrier_Damage",
			"samplers":[
				{
					"input":7,
					"interpolation":"STEP",
					"output":8
				},
				{
					"input":7,
					"interpolation":"STEP",
					"output":9
				},
				{
					"input":7,
					"interpolation":"STEP",
					"output":10
				},
				{
					"input":7,
					"interpolation":"STEP",
					"output":11
				},
				{
					"input":12,
					"interpolation":"LINEAR",
					"output":13
				},
				{
					"input":7,
					"interpolation":"STEP",
					"output":14
				},
				{
					"input":7,
					"interpolation":"STEP",
					"output":15
				},
				{
					"input":12,
					"interpolation":"LINEAR",
					"output":16
				},
				{
					"input":7,
					"interpolation":"STEP",
					"output":17
				}
			]
		},
		{
			"channels":[
				{
					"sampler":0,
					"target":{
						"node":2,
						"path":"translation"
					}
				},
				{
					"sampler":1,
					"target":{
						"node":2,
						"path":"rotation"
					}
				},
				{
					"sampler":2,
					"target":{
						"node":2,
						"path":"scale"
					}
				},
				{
					"sampler":3,
					"target":{
						"node":1,
						"path":"translation"
					}
				},
				{
					"sampler":4,
					"target":{
						"node":1,
						"path":"rotation"
					}
				},
				{
					"sampler":5,
					"target":{
						"node":1,
						"path":"scale"
					}
				},
				{
					"sampler":6,
					"target":{
						"node":0,
						"path":"translation"
					}
				},
				{
					"sampler":7,
					"target":{
						"node":0,
						"path":"rotation"
					}
				},
				{
					"sampler":8,
					"target":{
						"node":0,
						"path":"scale"
					}
				}
			],
			"name":"Missile",
			"samplers":[
				{
					"input":12,
					"interpolation":"LINEAR",
					"output":18
				},
				{
					"input":7,
					"interpolation":"STEP",
					"output":19
				},
				{
					"input":7,
					"interpolation":"STEP",
					"output":20
				},
				{
					"input":7,
					"interpolation":"STEP",
					"output":21
				},
				{
					"input":7,
					"interpolation":"STEP",
					"output":22
				},
				{
					"input":7,
					"interpolation":"STEP",
					"output":23
				},
				{
					"input":7,
					"interpolation":"STEP",
					"output":24
				},
				{
					"input":12,
					"interpolation":"LINEAR",
					"output":25
				},
				{
					"input":7,
					"interpolation":"STEP",
					"output":26
				}
			]
		},
		{
			"channels":[
				{
					"sampler":0,
					"target":{
						"node":2,
						"path":"translation"
					}
				},
				{
					"sampler":1,
					"target":{
						"node":2,
						"path":"rotation"
					}
				},
				{
					"sampler":2,
					"target":{
						"node":2,
						"path":"scale"
					}
				},
				{
					"sampler":3,
					"target":{
						"node":1,
						"path":"translation"
					}
				},
				{
					"sampler":4,
					"target":{
						"node":1,
						"path":"rotation"
					}
				},
				{
					"sampler":5,
					"target":{
						"node":1,
						"path":"scale"
					}
				},
				{
					"sampler":6,
					"target":{
						"node":0,
						"path":"translation"
					}
				},
				{
					"sampler":7,
					"target":{
						"node":0,
						"path":"rotation"
					}
				},
				{
					"sampler":8,
					"target":{
						"node":0,
						"path":"scale"
					}
				}
			],
			"name":"Stand_by",
			"samplers":[
				{
					"input":12,
					"interpolation":"LINEAR",
					"output":27
				},
				{
					"input":7,
					"interpolation":"STEP",
					"output":28
				},
				{
					"input":7,
					"interpolation":"STEP",
					"output":29
				},
				{
					"input":7,
					"interpolation":"STEP",
					"output":30
				},
				{
					"input":7,
					"interpolation":"STEP",
					"output":31
				},
				{
					"input":7,
					"interpolation":"STEP",
					"output":32
				},
				{
					"input":7,
					"interpolation":"STEP",
					"output":33
				},
				{
					"input":7,
					"interpolation":"STEP",
					"output":34
				},
				{
					"input":7,
					"interpolation":"STEP",
					"output":35
				}
			]
		}
	],
	"materials":[
		{
			"doubleSided":true,
			"name":"\u30de\u30c6\u30ea\u30a2\u30eb",
			"pbrMetallicRoughness":{
				"baseColorTexture":{
					"index":0
				},
				"metallicFactor":0,
				"roughnessFactor":0.5
			}
		}
	],
	"meshes":[
		{
			"name":"\u7acb\u65b9\u4f53.008",
			"primitives":[
				{
					"attributes":{
						"POSITION":0,
						"NORMAL":1,
						"TEXCOORD_0":2,
						"JOINTS_0":3,
						"WEIGHTS_0":4
					},
					"indices":5,
					"material":0
				}
			]
		}
	],
	"textures":[
		{
			"sampler":0,
			"source":0
		}
	],
	"images":[
		{
			"mimeType":"image/png",
			"name":"boss_body",
			"uri":"boss_body.png"
		}
	],
	"skins":[
		{
			"inverseBindMatrices":6,
			"joints":[
				2,
				1,
				0
			],
			"name":"Armature"
		}
	],
	"accessors":[
		{
			"bufferView":0,
			"componentType":5126,
			"count":3345,
			"max":[
				9.16185474395752,
				17.19141960144043,
				10.884919166564941
			],
			"min":[
				-9.16185474395752,
				-0.9656067490577698,
				-8.590311050415039
			],
			"type":"VEC3"
		},
		{
			"bufferView":1,
			"componentType":5126,
			"count":3345,
			"type":"VEC3"
		},
		{
			"bufferView":2,
			"componentType":5126,
			"count":3345,
			"type":"VEC2"
		},
		{
			"bufferView":3,
			"componentType":5121,
			"count":3345,
			"type":"VEC4"
		},
		{
			"bufferView":4,
			"componentType":5126,
			"count":3345,
			"type":"VEC4"
		},
		{
			"bufferView":5,
			"componentType":5123,
			"count":4434,
			"type":"SCALAR"
		},
		{
			"bufferView":6,
			"componentType":5126,
			"count":3,
			"type":"MAT4"
		},
		{
			"bufferView":7,
			"componentType":5126,
			"count":2,
			"max":[
				1.6666666666666667
			],
			"min":[
				0.041666666666666664
			],
			"type":"SCALAR"
		},
		{
			"bufferView":8,
			"componentType":5126,
			"count":2,
			"type":"VEC3"
		},
		{
			"bufferView":9,
			"componentType":5126,
			"count":2,
			"type":"VEC4"
		},
		{
			"bufferView":10,
			"componentType":5126,
			"count":2,
			"type":"VEC3"
		},
		{
			"bufferView":11,
			"componentType":5126,
			"count":2,
			"type":"VEC3"
		},
		{
			"bufferView":12,
			"componentType":5126,
			"count":40,
			"max":[
				1.6666666666666667
			],
			"min":[
				0.041666666666666664
			],
			"type":"SCALAR"
		},
		{
			"bufferView":13,
			"componentType":5126,
			"count":40,
			"type":"VEC4"
		},
		{
			"bufferView":14,
			"componentType":5126,
			"count":2,
			"type":"VEC3"
		},
		{
			"bufferView":15,
			"componentType":5126,
			"count":2,
			"type":"VEC3"
		},
		{
			"bufferView":16,
			"componentType":5126,
			"count":40,
			"type":"VEC4"
		},
		{
			"bufferView":17,
			"componentType":5126,
			"count":2,
			"type":"VEC3"
		},
		{
			"bufferView":18,
			"componentType":5126,
			"count":40,
			"type":"VEC3"
		},
		{
			"bufferView":19,
			"componentType":5126,
			"count":2,
			"type":"VEC4"
		},
		{
			"bufferView":20,
			"componentType":5126,
			"count":2,
			"type":"VEC3"
		},
		{
			"bufferView":21,
			"componentType":5126,
			"count":2,
			"type":"VEC3"
		},
		{
			"bufferView":22,
			"componentType":5126,
			"count":2,
			"type":"VEC4"
		},
		{
			"bufferView":23,
			"componentType":5126,
			"count":2,
			"type":"VEC3"
		},
		{
			"bufferView":24,
			"componentType":5126,
			"count":2,
			"type":"VEC3"
		},
		{
			"bufferView":25,
			"componentType":5126,
			"count":40,
			"type":"VEC4"
		},
		{
			"bufferView":26,
			"componentType":5126,
			"count":2,
			"type":"VEC3"
		},
		{
			"bufferView":27,
			"componentType":5126,
			"count":40,
			"type":"VEC3"
		},
		{
			"bufferView":28,
			"componentType":5126,
			"count":2,
			"type":"VEC4"
		},
		{
			"bufferView":29,
			"componentType":5126,
			"count":2,
			"type":"VEC3"
		},
		{
			"bufferView":30,
			"componentType":5126,
			"count":2,
			"type":"VEC3"
		},
		{
			"bufferView":31,
			"componentType":5126,
			"count":2,
			"type":"VEC4"
		},
		{
			"bufferView":32,
			"componentType":5126,
			"count":2,
			"type":"VEC3"
		},
		{
			"bufferView":33,
			"componentType":5126,
			"count":2,
			"type":"VEC3"
		},
		{
			"bufferView":34,
			"componentType":5126,
			"count":2,
			"type":"VEC4"
		},
		{
			"bufferView":35,
			"componentType":5126,
			"count":2,
			"type":"VEC3"
		}
	],
	"bufferViews":[
		{
			"buffer":0,
			"byteLength":40140,
			"byteOffset":0,
			"target":34962
		},
		{
			"buffer":0,
			"byteLength":40140,
			"byteOffset":40140,
			"target":34962
		},
		{
			"buffer":0,
			"byteLength":26760,
			"byteOffset":80280,
			"target":34962
		},
		{
			"buffer":0,
			"byteLength":13380,
			"byteOffset":107040,
			"target":34962
		},
		{
			"buffer":0,
			"byteLength":53520,
			"byteOffset":120420,
			"target":34962
		},
		{
			"buffer":0,
			"byteLength":8868,
			"byteOffset":173940,
			"target":34963
		},
		{
			"buffer":0,
			"byteLength":192,
			"byteOffset":182808
		},
		{
			"buffer":0,
			"byteLength":8,
			"byteOffset":183000
		},
		{
			"buffer":0,
			"byteLength":24,
			"byteOffset":183008
		},
		{
			"buffer":0,
			"byteLength":32,
			"byteOffset":183032
		},
		{
			"buffer":0,
			"byteLength":24,
			"byteOffset":183064
		},
		{
			"buffer":0,
			"byteLength":24,
			"byteOffset":183088
		},
		{
			"buffer":0,
			"byteLength":160,
			"byteOffset":183112
		},
		{
			"buffer":0,
			"byteLength":640,
			"byteOffset":183272
		},
		{
			"buffer":0,
			"byteLength":24,
			"byteOffset":183912
		},
		{
			"buffer":0,
			"byteLength":24,
			"byteOffset":183936
		},
		{
			"buffer":0,
			"byteLength":640,
			"byteOffset":183960
		},
		{
			"buffer":0,
			"byteLength":24,
			"byteOffset":184600
		},
		{
			"buffer":0,
			"byteLength":480,
			"byteOffset":184624
		},
		{
			"buffer":0,
			"byteLength":32,
			"byteOffset":185104
		},
		{
			"buffer":0,
			"byteLength":24,
			"byteOffset":185136
		},
		{
			"buffer":0,
			"byteLength":24,
			"byteOffset":185160
		},
		{
			"buffer":0,
			"byteLength":32,
			"byteOffset":185184
		},
		{
			"buffer":0,
			"byteLength":24,
			"byteOffset":185216
		},
		{
			"buffer":0,
			"byteLength":24,
			"byteOffset":185240
		},
		{
			"buffer":0,
			"byteLength":640,
			"byteOffset":185264
		},
		{
			"buffer":0,
			"byteLength":24,
			"byteOffset":185904
		},
		{
			"buffer":0,
			"byteLength":480,
			"byteOffset":185928
		},
		{
			"buffer":0,
			"byteLength":32,
			"byteOffset":186408
		},
		{
			"buffer":0,
			"byteLength":24,
			"byteOffset":186440
		},
		{
			"buffer":0,
			"byteLength":24,
			"byteOffset":186464
		},
		{
			"buffer":0,
			"byteLength":32,
			"byteOffset":186488
		},
		{
			"buffer":0,
			"byteLength":24,
			"byteOffset":186520
		},
		{
			"buffer":0,
			"byteLength":24,
			"byteOffset":186544
		},
		{
			"buffer":0,
			"byteLength":32,
			"byteOffset":186568
		},
		{
			"buffer":0,
			"byteLength":24,
			"byteOffset":186600
		}
	],
	"samplers":[
		{
			"magFilter":9729,
			"minFilter":9987
		}
	],
	"buffers":[
		{
			"byteLength":186624,
			"uri":"boss_Body.bin"
		}
	]
}
