{
	"asset":{
		"generator":"Khronos glTF Blender I/O v4.1.63",
		"version":"2.0"
	},
	"scene":0,
	"scenes":[
		{
			"name":"Scene",
			"nodes":[
				0
			]
		}
	],
	"nodes":[
		{
			"mesh":0,
			"name":"\u7403"
		}
	],
	"materials":[
		{
			"doubleSided":true,
			"name":"\u30de\u30c6\u30ea\u30a2\u30eb",
			"pbrMetallicRoughness":{
				"baseColorTexture":{
					"index":0
				},
				"metallicFactor":0,
				"roughnessFactor":0.5
			}
		}
	],
	"meshes":[
		{
			"name":"\u7403",
			"primitives":[
				{
					"attributes":{
						"POSITION":0,
						"NORMAL":1,
						"TEXCOORD_0":2
					},
					"indices":3,
					"material":0
				}
			]
		}
	],
	"textures":[
		{
			"sampler":0,
			"source":0
		}
	],
	"images":[
		{
			"mimeType":"image/png",
			"name":"uvChecker",
			"uri":"uvChecker.png"
		}
	],
	"accessors":[
		{
			"bufferView":0,
			"componentType":5126,
			"count":36360,
			"max":[
				0.44425398111343384,
				0.4489086866378784,
				0.4442538321018219
			],
			"min":[
				-0.44425374269485474,
				-0.4489086866378784,
				-0.4442540407180786
			],
			"type":"VEC3"
		},
		{
			"bufferView":1,
			"componentType":5126,
			"count":36360,
			"type":"VEC3"
		},
		{
			"bufferView":2,
			"componentType":5126,
			"count":36360,
			"type":"VEC2"
		},
		{
			"bufferView":3,
			"componentType":5123,
			"count":47616,
			"type":"SCALAR"
		}
	],
	"bufferViews":[
		{
			"buffer":0,
			"byteLength":436320,
			"byteOffset":0,
			"target":34962
		},
		{
			"buffer":0,
			"byteLength":436320,
			"byteOffset":436320,
			"target":34962
		},
		{
			"buffer":0,
			"byteLength":290880,
			"byteOffset":872640,
			"target":34962
		},
		{
			"buffer":0,
			"byteLength":95232,
			"byteOffset":1163520,
			"target":34963
		}
	],
	"samplers":[
		{
			"magFilter":9729,
			"minFilter":9987
		}
	],
	"buffers":[
		{
			"byteLength":1258752,
			"uri":"sphere.bin"
		}
	]
}
