{
	"asset":{
		"generator":"Khronos glTF Blender I/O v4.2.69",
		"version":"2.0"
	},
	"scene":0,
	"scenes":[
		{
			"name":"Scene",
			"nodes":[
				5
			]
		}
	],
	"nodes":[
		{
			"name":"therd",
			"translation":[
				0,
				1.080635905265808,
				0
			]
		},
		{
			"children":[
				0
			],
			"name":"second",
			"translation":[
				0,
				1.0708122253417969,
				0
			]
		},
		{
			"children":[
				1
			],
			"name":"first",
			"translation":[
				0,
				1.0000001192092896,
				0
			]
		},
		{
			"children":[
				2
			],
			"name":"origine",
			"translation":[
				0,
				2.384185791015625e-07,
				0
			]
		},
		{
			"mesh":0,
			"name":"\u7acb\u65b9\u4f53",
			"skin":0
		},
		{
			"children":[
				4,
				3
			],
			"name":"test",
			"scale":[
				1,
				0.8016699552536011,
				1
			],
			"translation":[
				0,
				-1.7310529947280884,
				0
			]
		}
	],
	"animations":[
		{
			"channels":[
				{
					"sampler":0,
					"target":{
						"node":3,
						"path":"translation"
					}
				},
				{
					"sampler":1,
					"target":{
						"node":3,
						"path":"rotation"
					}
				},
				{
					"sampler":2,
					"target":{
						"node":3,
						"path":"scale"
					}
				},
				{
					"sampler":3,
					"target":{
						"node":2,
						"path":"translation"
					}
				},
				{
					"sampler":4,
					"target":{
						"node":2,
						"path":"rotation"
					}
				},
				{
					"sampler":5,
					"target":{
						"node":2,
						"path":"scale"
					}
				},
				{
					"sampler":6,
					"target":{
						"node":1,
						"path":"translation"
					}
				},
				{
					"sampler":7,
					"target":{
						"node":1,
						"path":"rotation"
					}
				},
				{
					"sampler":8,
					"target":{
						"node":1,
						"path":"scale"
					}
				},
				{
					"sampler":9,
					"target":{
						"node":0,
						"path":"translation"
					}
				},
				{
					"sampler":10,
					"target":{
						"node":0,
						"path":"rotation"
					}
				},
				{
					"sampler":11,
					"target":{
						"node":0,
						"path":"scale"
					}
				}
			],
			"name":"Anim_0_Armature",
			"samplers":[
				{
					"input":7,
					"interpolation":"STEP",
					"output":8
				},
				{
					"input":7,
					"interpolation":"STEP",
					"output":9
				},
				{
					"input":7,
					"interpolation":"STEP",
					"output":10
				},
				{
					"input":7,
					"interpolation":"STEP",
					"output":11
				},
				{
					"input":7,
					"interpolation":"STEP",
					"output":12
				},
				{
					"input":7,
					"interpolation":"STEP",
					"output":13
				},
				{
					"input":7,
					"interpolation":"STEP",
					"output":14
				},
				{
					"input":7,
					"interpolation":"STEP",
					"output":15
				},
				{
					"input":7,
					"interpolation":"STEP",
					"output":16
				},
				{
					"input":7,
					"interpolation":"STEP",
					"output":17
				},
				{
					"input":7,
					"interpolation":"STEP",
					"output":18
				},
				{
					"input":7,
					"interpolation":"STEP",
					"output":19
				}
			]
		},
		{
			"channels":[
				{
					"sampler":0,
					"target":{
						"node":3,
						"path":"translation"
					}
				},
				{
					"sampler":1,
					"target":{
						"node":3,
						"path":"rotation"
					}
				},
				{
					"sampler":2,
					"target":{
						"node":3,
						"path":"scale"
					}
				},
				{
					"sampler":3,
					"target":{
						"node":2,
						"path":"translation"
					}
				},
				{
					"sampler":4,
					"target":{
						"node":2,
						"path":"rotation"
					}
				},
				{
					"sampler":5,
					"target":{
						"node":2,
						"path":"scale"
					}
				},
				{
					"sampler":6,
					"target":{
						"node":1,
						"path":"translation"
					}
				},
				{
					"sampler":7,
					"target":{
						"node":1,
						"path":"rotation"
					}
				},
				{
					"sampler":8,
					"target":{
						"node":1,
						"path":"scale"
					}
				},
				{
					"sampler":9,
					"target":{
						"node":0,
						"path":"translation"
					}
				},
				{
					"sampler":10,
					"target":{
						"node":0,
						"path":"rotation"
					}
				},
				{
					"sampler":11,
					"target":{
						"node":0,
						"path":"scale"
					}
				}
			],
			"name":"uneri",
			"samplers":[
				{
					"input":20,
					"interpolation":"STEP",
					"output":21
				},
				{
					"input":20,
					"interpolation":"STEP",
					"output":22
				},
				{
					"input":20,
					"interpolation":"STEP",
					"output":23
				},
				{
					"input":20,
					"interpolation":"STEP",
					"output":24
				},
				{
					"input":20,
					"interpolation":"STEP",
					"output":25
				},
				{
					"input":20,
					"interpolation":"STEP",
					"output":26
				},
				{
					"input":20,
					"interpolation":"STEP",
					"output":27
				},
				{
					"input":28,
					"interpolation":"LINEAR",
					"output":29
				},
				{
					"input":20,
					"interpolation":"STEP",
					"output":30
				},
				{
					"input":20,
					"interpolation":"LINEAR",
					"output":31
				},
				{
					"input":28,
					"interpolation":"LINEAR",
					"output":32
				},
				{
					"input":20,
					"interpolation":"LINEAR",
					"output":33
				}
			]
		}
	],
	"materials":[
		{
			"doubleSided":true,
			"name":"material.001",
			"pbrMetallicRoughness":{
				"baseColorTexture":{
					"index":0
				},
				"metallicFactor":0,
				"roughnessFactor":0.5
			}
		}
	],
	"meshes":[
		{
			"name":"\u7acb\u65b9\u4f53.001",
			"primitives":[
				{
					"attributes":{
						"POSITION":0,
						"NORMAL":1,
						"TEXCOORD_0":2,
						"JOINTS_0":3,
						"WEIGHTS_0":4
					},
					"indices":5,
					"material":0
				}
			]
		}
	],
	"textures":[
		{
			"sampler":0,
			"source":0
		}
	],
	"images":[
		{
			"mimeType":"image/png",
			"name":"white",
			"uri":"white.png"
		}
	],
	"skins":[
		{
			"inverseBindMatrices":6,
			"joints":[
				3,
				2,
				1,
				0
			],
			"name":"test"
		}
	],
	"accessors":[
		{
			"bufferView":0,
			"componentType":5126,
			"count":60,
			"max":[
				0.5017995238304138,
				1.7408573627471924,
				0.5049737691879272
			],
			"min":[
				-0.5017995238304138,
				-1.7177962064743042,
				-0.6076104044914246
			],
			"type":"VEC3"
		},
		{
			"bufferView":1,
			"componentType":5126,
			"count":60,
			"type":"VEC3"
		},
		{
			"bufferView":2,
			"componentType":5126,
			"count":60,
			"type":"VEC2"
		},
		{
			"bufferView":3,
			"componentType":5121,
			"count":60,
			"type":"VEC4"
		},
		{
			"bufferView":4,
			"componentType":5126,
			"count":60,
			"type":"VEC4"
		},
		{
			"bufferView":5,
			"componentType":5123,
			"count":108,
			"type":"SCALAR"
		},
		{
			"bufferView":6,
			"componentType":5126,
			"count":4,
			"type":"MAT4"
		},
		{
			"bufferView":7,
			"componentType":5126,
			"count":2,
			"max":[
				5.5
			],
			"min":[
				0
			],
			"type":"SCALAR"
		},
		{
			"bufferView":8,
			"componentType":5126,
			"count":2,
			"type":"VEC3"
		},
		{
			"bufferView":9,
			"componentType":5126,
			"count":2,
			"type":"VEC4"
		},
		{
			"bufferView":10,
			"componentType":5126,
			"count":2,
			"type":"VEC3"
		},
		{
			"bufferView":11,
			"componentType":5126,
			"count":2,
			"type":"VEC3"
		},
		{
			"bufferView":12,
			"componentType":5126,
			"count":2,
			"type":"VEC4"
		},
		{
			"bufferView":13,
			"componentType":5126,
			"count":2,
			"type":"VEC3"
		},
		{
			"bufferView":14,
			"componentType":5126,
			"count":2,
			"type":"VEC3"
		},
		{
			"bufferView":15,
			"componentType":5126,
			"count":2,
			"type":"VEC4"
		},
		{
			"bufferView":16,
			"componentType":5126,
			"count":2,
			"type":"VEC3"
		},
		{
			"bufferView":17,
			"componentType":5126,
			"count":2,
			"type":"VEC3"
		},
		{
			"bufferView":18,
			"componentType":5126,
			"count":2,
			"type":"VEC4"
		},
		{
			"bufferView":19,
			"componentType":5126,
			"count":2,
			"type":"VEC3"
		},
		{
			"bufferView":20,
			"componentType":5126,
			"count":2,
			"max":[
				2.9166666666666665
			],
			"min":[
				0
			],
			"type":"SCALAR"
		},
		{
			"bufferView":21,
			"componentType":5126,
			"count":2,
			"type":"VEC3"
		},
		{
			"bufferView":22,
			"componentType":5126,
			"count":2,
			"type":"VEC4"
		},
		{
			"bufferView":23,
			"componentType":5126,
			"count":2,
			"type":"VEC3"
		},
		{
			"bufferView":24,
			"componentType":5126,
			"count":2,
			"type":"VEC3"
		},
		{
			"bufferView":25,
			"componentType":5126,
			"count":2,
			"type":"VEC4"
		},
		{
			"bufferView":26,
			"componentType":5126,
			"count":2,
			"type":"VEC3"
		},
		{
			"bufferView":27,
			"componentType":5126,
			"count":2,
			"type":"VEC3"
		},
		{
			"bufferView":28,
			"componentType":5126,
			"count":71,
			"max":[
				2.9166666666666665
			],
			"min":[
				0
			],
			"type":"SCALAR"
		},
		{
			"bufferView":29,
			"componentType":5126,
			"count":71,
			"type":"VEC4"
		},
		{
			"bufferView":30,
			"componentType":5126,
			"count":2,
			"type":"VEC3"
		},
		{
			"bufferView":31,
			"componentType":5126,
			"count":2,
			"type":"VEC3"
		},
		{
			"bufferView":32,
			"componentType":5126,
			"count":71,
			"type":"VEC4"
		},
		{
			"bufferView":33,
			"componentType":5126,
			"count":2,
			"type":"VEC3"
		}
	],
	"bufferViews":[
		{
			"buffer":0,
			"byteLength":720,
			"byteOffset":0,
			"target":34962
		},
		{
			"buffer":0,
			"byteLength":720,
			"byteOffset":720,
			"target":34962
		},
		{
			"buffer":0,
			"byteLength":480,
			"byteOffset":1440,
			"target":34962
		},
		{
			"buffer":0,
			"byteLength":240,
			"byteOffset":1920,
			"target":34962
		},
		{
			"buffer":0,
			"byteLength":960,
			"byteOffset":2160,
			"target":34962
		},
		{
			"buffer":0,
			"byteLength":216,
			"byteOffset":3120,
			"target":34963
		},
		{
			"buffer":0,
			"byteLength":256,
			"byteOffset":3336
		},
		{
			"buffer":0,
			"byteLength":8,
			"byteOffset":3592
		},
		{
			"buffer":0,
			"byteLength":24,
			"byteOffset":3600
		},
		{
			"buffer":0,
			"byteLength":32,
			"byteOffset":3624
		},
		{
			"buffer":0,
			"byteLength":24,
			"byteOffset":3656
		},
		{
			"buffer":0,
			"byteLength":24,
			"byteOffset":3680
		},
		{
			"buffer":0,
			"byteLength":32,
			"byteOffset":3704
		},
		{
			"buffer":0,
			"byteLength":24,
			"byteOffset":3736
		},
		{
			"buffer":0,
			"byteLength":24,
			"byteOffset":3760
		},
		{
			"buffer":0,
			"byteLength":32,
			"byteOffset":3784
		},
		{
			"buffer":0,
			"byteLength":24,
			"byteOffset":3816
		},
		{
			"buffer":0,
			"byteLength":24,
			"byteOffset":3840
		},
		{
			"buffer":0,
			"byteLength":32,
			"byteOffset":3864
		},
		{
			"buffer":0,
			"byteLength":24,
			"byteOffset":3896
		},
		{
			"buffer":0,
			"byteLength":8,
			"byteOffset":3920
		},
		{
			"buffer":0,
			"byteLength":24,
			"byteOffset":3928
		},
		{
			"buffer":0,
			"byteLength":32,
			"byteOffset":3952
		},
		{
			"buffer":0,
			"byteLength":24,
			"byteOffset":3984
		},
		{
			"buffer":0,
			"byteLength":24,
			"byteOffset":4008
		},
		{
			"buffer":0,
			"byteLength":32,
			"byteOffset":4032
		},
		{
			"buffer":0,
			"byteLength":24,
			"byteOffset":4064
		},
		{
			"buffer":0,
			"byteLength":24,
			"byteOffset":4088
		},
		{
			"buffer":0,
			"byteLength":284,
			"byteOffset":4112
		},
		{
			"buffer":0,
			"byteLength":1136,
			"byteOffset":4396
		},
		{
			"buffer":0,
			"byteLength":24,
			"byteOffset":5532
		},
		{
			"buffer":0,
			"byteLength":24,
			"byteOffset":5556
		},
		{
			"buffer":0,
			"byteLength":1136,
			"byteOffset":5580
		},
		{
			"buffer":0,
			"byteLength":24,
			"byteOffset":6716
		}
	],
	"samplers":[
		{
			"magFilter":9729,
			"minFilter":9987
		}
	],
	"buffers":[
		{
			"byteLength":6740,
			"uri":"testSkinning.bin"
		}
	]
}
