# Blender 4.1.1
# www.blender.org
mtllib Left_Hand.mtl
o Cube
v 4.697967 -0.148749 8.109992
v 4.169087 -2.013581 7.617359
v 5.499250 1.115388 -0.559838
v 4.983602 -0.934099 -0.295678
v -3.369208 -0.177356 8.091607
v -2.822211 -2.037296 7.600266
v -4.535893 0.484275 -0.559838
v -3.993691 -1.422617 -0.295677
v 0.077121 -1.564022 7.736118
v 0.027418 1.383234 -0.559838
v -0.003805 -0.586414 -0.295677
v 0.139068 0.357131 8.243629
v 2.901792 -0.479497 -0.295677
v 2.026900 0.480358 8.276183
v 2.054670 -1.453122 7.765415
v 2.810347 1.502790 -0.559838
v -1.396391 -1.809910 7.671162
v -2.272343 1.071723 -0.559838
v -1.977111 -0.835169 -0.295677
v -1.943387 0.050031 8.162503
v -3.412931 -1.149635 3.582453
v 5.834182 1.203822 1.940462
v -3.959926 0.710306 3.627332
v 5.456731 -1.072499 1.568498
v -0.003199 -0.511293 3.751085
v 0.118625 1.409859 3.315011
v 2.872391 1.533086 3.596263
v 2.054669 -0.400394 3.780381
v -1.985350 -0.757181 3.686128
v -2.190361 1.102759 3.500399
v -3.651057 0.266179 6.098865
v 5.008461 -1.979223 6.278932
v -3.104060 -1.593763 5.607523
v 5.928547 -0.571178 6.152682
v -0.003198 -1.037657 5.743601
v 0.145022 0.883496 6.251113
v 2.506547 1.006721 6.283666
v 2.054669 -0.926757 5.772898
v -1.709599 -1.283545 5.678645
v -2.192816 0.576396 6.169987
v -4.540668 -2.233064 -5.373705
v -5.001080 -0.613825 -6.453557
v -3.289383 -0.294176 -6.704053
v 2.663404 -0.151721 -7.587492
v 0.602733 -0.180337 -7.587491
v 0.626108 -1.863600 -6.507637
v 2.686779 -1.834983 -6.507638
v -2.828970 -1.913416 -5.624201
v 5.758330 -0.633742 -6.796113
v 5.313168 -2.257241 -5.716259
v 3.307667 -1.807049 -5.866178
v -2.038470 -2.249262 -6.585106
v 0.009063 -2.015180 -6.585106
v -0.182147 -0.342648 -7.664958
v 3.752829 -0.183550 -6.946031
v -2.229680 -0.576731 -7.664958
v -4.640574 -3.599365 -7.379876
v -5.100989 -1.980125 -8.459728
v -3.494049 -1.694357 -8.716367
v 2.828342 -1.933208 -10.368022
v 0.767671 -1.961824 -10.368022
v 0.791045 -3.645087 -9.288170
v 2.851716 -3.616471 -9.288171
v -3.033635 -3.313597 -7.636514
v 5.605013 -2.299921 -9.364325
v 5.159850 -3.923419 -8.284473
v 3.153286 -3.483841 -8.450785
v -1.937293 -3.975744 -9.277081
v 0.110240 -3.741661 -9.277081
v -0.080971 -2.069131 -10.356936
v 3.598450 -1.860343 -9.530637
v -2.128503 -2.303213 -10.356936
v 7.407559 -1.050821 4.676942
v 6.633978 0.246490 2.616910
v 5.918000 -1.572180 2.244946
v 6.036771 -2.458864 4.304978
v 9.310202 -2.073843 1.537756
v 7.802640 -0.535186 1.269051
v 6.431852 -1.943229 0.897087
v 7.939415 -3.481886 1.165793
v 3.164134 -0.914982 -3.258388
v 3.657067 0.882734 -3.983117
v 5.812538 0.363934 -3.803951
v 5.319603 -1.433782 -3.079221
v 2.651239 -0.762551 -3.672510
v 0.411739 -0.793650 -3.672510
v 0.385856 1.070243 -4.397241
v 2.625355 1.101341 -4.397241
v -2.341515 0.743473 -4.342711
v -0.270649 0.980223 -4.342712
v -0.058920 -0.871787 -3.617983
v -2.129785 -1.108536 -3.617983
v -4.244615 -1.318984 -2.507838
v -4.754436 0.474016 -3.232569
v -2.924615 0.898159 -3.470437
v -2.414795 -0.894841 -2.745707
v 9.068377 -0.902940 -2.003425
v 7.993101 -0.161112 -0.848883
v 6.622313 -1.569155 -1.220846
v 7.697587 -2.310983 -2.375388
vn -0.2167 0.9762 -0.0031
vn -0.9979 -0.0349 -0.0542
vn -0.9521 -0.2981 0.0683
vn -0.2090 -0.9776 -0.0245
vn 0.9604 -0.1180 -0.2525
vn -0.0000 -0.2554 0.9668
vn 0.1250 -0.9920 0.0197
vn 0.0130 -0.9352 0.3539
vn -0.0440 0.9990 -0.0066
vn 0.1424 0.9883 -0.0540
vn 0.9946 0.1028 -0.0168
vn 0.0535 -0.9984 0.0185
vn 0.2796 -0.9598 0.0257
vn -0.0070 -0.2573 0.9663
vn -0.1055 0.9229 -0.3703
vn -0.1342 0.9909 -0.0036
vn -0.1159 0.9775 0.1763
vn 0.2224 -0.9447 -0.2411
vn 0.0557 -0.9653 -0.2550
vn 0.4036 0.8464 0.3476
vn -0.0627 0.9810 0.1836
vn 0.1474 -0.9510 -0.2716
vn 0.6558 0.0146 -0.7548
vn -0.3363 -0.9105 -0.2405
vn -0.9550 -0.2493 0.1606
vn -0.1996 0.9614 0.1894
vn -0.2129 0.9378 0.2744
vn -0.2880 -0.9259 -0.2446
vn 0.7597 -0.4548 0.4648
vn 0.1700 -0.9458 -0.2766
vn -0.0539 0.9686 0.2429
vn 0.4199 0.9050 0.0687
vn 0.0579 -0.9646 -0.2572
vn 0.1645 -0.9576 -0.2364
vn -0.1346 0.9581 0.2527
vn -0.9505 -0.3004 0.0791
vn -0.9949 -0.0975 0.0251
vn -0.9723 -0.1679 0.1628
vn 0.9998 0.0176 0.0059
vn -0.9655 -0.2153 0.1466
vn 0.9702 0.1479 -0.1919
vn 0.2154 -0.9366 0.2765
vn -0.2527 0.9167 -0.3095
vn -0.0129 0.9306 -0.3657
vn -0.0956 0.8363 -0.5399
vn 0.9696 0.1434 -0.1984
vn -0.9690 0.2210 -0.1108
vn 0.1060 -0.9270 0.3597
vn -0.9939 -0.1097 0.0101
vn 0.2302 0.9219 -0.3116
vn -0.2467 -0.9210 0.3015
vn 0.9727 -0.2222 0.0670
vn -0.0324 -0.5609 -0.8273
vn 0.0075 -0.5399 -0.8417
vn -0.0497 -0.5437 -0.8378
vn 0.0613 -0.5364 -0.8417
vn -0.2302 0.8096 -0.5399
vn 0.9736 -0.2135 0.0804
vn -0.0117 0.8416 -0.5399
vn -0.2226 -0.8117 0.5399
vn -0.9987 -0.0368 -0.0357
vn 0.0956 -0.8363 0.5399
vn 0.0117 -0.8416 0.5399
vn 0.9949 0.0975 -0.0251
vn 0.9987 0.0368 0.0357
vn 0.2226 0.8117 -0.5399
vn 0.2302 -0.8096 0.5399
vn -0.9736 0.2135 -0.0804
vn 0.6854 0.7040 0.1860
vn 0.5450 0.7865 0.2906
vn -0.5625 -0.8003 -0.2076
vn 0.5712 -0.6782 0.4624
vn 0.5300 -0.6575 0.5355
vn -0.5808 0.3763 -0.7218
vn -0.8360 -0.5199 -0.1756
vn 0.9670 -0.2034 0.1532
vn -0.2117 -0.9695 0.1238
vn 0.2448 0.9495 -0.1963
vn -0.9711 -0.0750 -0.2266
vn -0.0427 0.9939 -0.1019
vn 0.9972 -0.0145 -0.0728
vn 0.0139 -0.9979 0.0629
vn -0.9956 0.0033 -0.0933
vn -0.9884 -0.1487 0.0310
vn 0.1133 -0.9906 0.0763
vn -0.1336 0.9865 -0.0946
vn 0.9943 0.1037 -0.0254
vn -0.2512 0.9679 -0.0014
vn 0.2166 -0.9737 -0.0702
vn 0.9632 0.2023 -0.1770
vn -0.9668 -0.2426 0.0800
vn -0.3871 0.5686 -0.7259
vn 0.7253 -0.6373 -0.2603
vn -0.7228 0.6887 0.0566
vn -0.6854 -0.7040 -0.1860
vn -0.2512 0.9678 -0.0177
vn -0.9971 -0.0501 -0.0565
vn -0.2133 -0.9768 -0.0184
vn 0.9591 -0.2567 -0.1194
vn 0.1225 -0.9923 0.0184
vn -0.0429 0.9991 -0.0059
vn 0.1056 0.9944 -0.0088
vn 0.9941 0.1073 -0.0162
vn 0.0368 -0.9990 0.0270
vn 0.2637 -0.9644 0.0194
vn -0.1322 0.9912 -0.0049
vn -0.1344 0.9722 0.1916
vn 0.2733 -0.9200 -0.2809
vn 0.2268 0.9495 0.2168
vn -0.0537 0.9828 0.1767
vn 0.1273 -0.9590 -0.2533
vn 0.7532 -0.1663 -0.6365
vn -0.2966 -0.9322 -0.2077
vn -0.9482 -0.2824 0.1457
vn -0.2132 0.9566 0.1985
vn -0.1645 0.9576 0.2364
vn -0.2640 -0.9457 -0.1898
vn 0.7532 -0.3592 0.5511
vn 0.1474 -0.9548 -0.2582
vn -0.0674 0.9647 0.2546
vn 0.2363 0.9239 0.3010
vn 0.2220 -0.9335 -0.2815
vn -0.1508 0.9510 0.2701
vn -0.9567 -0.2830 0.0687
vn 0.9999 0.0161 0.0056
vn -0.9726 -0.1728 0.1556
vn 0.9627 0.2000 -0.1823
vn 0.2517 -0.9232 0.2905
vn -0.2171 0.9297 -0.2974
vn -0.9749 0.1887 -0.1182
vn -0.9942 -0.1069 0.0105
vn 0.2468 0.9143 -0.3211
vn -0.2302 -0.9287 0.2906
vn 0.9687 -0.2404 0.0626
vn 0.6223 0.7263 0.2921
vn -0.7381 -0.6342 -0.2304
vn 0.6094 -0.3337 0.7192
vn -0.5942 0.6884 -0.4160
vn 0.9638 -0.2238 0.1449
vn -0.2428 -0.9595 0.1429
vn 0.1411 0.9797 -0.1425
vn -0.9688 0.2181 -0.1178
vn -0.0138 0.9965 -0.0826
vn 0.9979 0.0391 -0.0522
vn 0.0367 -0.9961 0.0808
vn -0.9912 -0.0598 -0.1183
vn -0.9943 -0.0928 0.0533
vn 0.1246 -0.9887 0.0829
vn -0.1132 0.9900 -0.0838
vn 0.9968 -0.0260 -0.0758
vn -0.2240 0.9745 0.0146
vn 0.2796 -0.9598 -0.0266
vn 0.9674 0.1188 -0.2239
vn -0.9608 -0.2598 0.0968
vt 0.875000 0.625000
vt 0.812500 0.750000
vt 0.812500 0.625000
vt 0.375000 0.875000
vt 0.625000 0.875000
vt 0.375000 0.187500
vt 0.625000 0.250000
vt 0.375000 0.250000
vt 0.375000 0.625000
vt 0.312500 0.750000
vt 0.312500 0.625000
vt 0.625000 0.625000
vt 0.375000 0.750000
vt 0.375000 0.437500
vt 0.625000 0.500000
vt 0.375000 0.500000
vt 0.625000 0.312500
vt 0.375000 0.375000
vt 0.375000 0.312500
vt 0.187500 0.625000
vt 0.250000 0.750000
vt 0.187500 0.750000
vt 0.750000 0.625000
vt 0.687500 0.750000
vt 0.687500 0.625000
vt 0.625000 0.750000
vt 0.625000 0.375000
vt 0.250000 0.625000
vt 0.125000 0.625000
vt 0.125000 0.750000
vt 0.750000 0.750000
vt 0.750000 0.562500
vt 0.187500 0.562500
vt 0.125000 0.562500
vt 0.312500 0.562500
vt 0.250000 0.562500
vt 0.687500 0.562500
vt 0.625000 0.562500
vt 0.625000 0.000000
vt 0.375000 0.125000
vt 0.375000 0.000000
vt 0.812500 0.562500
vt 0.812500 0.500000
vt 0.875000 0.562500
vt 0.312500 0.500000
vt 0.375000 0.562500
vt 0.250000 0.500000
vt 0.187500 0.500000
vt 0.687500 0.500000
vt 0.125000 0.500000
vt 0.750000 0.500000
vt 0.625000 0.187500
vt 0.375000 0.937500
vt 0.625000 0.937500
vt 0.375000 0.812500
vt 0.625000 0.812500
vt 0.875000 0.750000
vt 0.625000 1.000000
vt 0.375000 1.000000
vt 0.625000 0.437500
vt 0.625000 0.125000
vt 0.875000 0.500000
s 0
usemtl Material.001
f 23/1/1 30/3/1 18/2/1
f 86/4/2 87/5/2 45/5/2
f 33/6/3 6/8/3 5/7/3
f 24/9/4 28/11/4 13/10/4
f 22/12/5 24/9/5 4/13/5
f 15/14/6 2/16/6 1/15/6
f 20/17/6 17/19/6 9/18/6
f 29/20/7 19/22/7 11/21/7
f 86/21/8 46/21/8 47/10/8
f 26/23/9 27/25/9 16/24/9
f 22/12/10 3/26/10 16/24/10
f 91/4/11 53/4/11 54/5/11
f 12/27/6 9/18/6 15/14/6
f 28/11/12 25/28/12 11/21/12
f 21/29/13 8/30/13 19/22/13
f 5/7/14 6/8/14 17/19/14
f 89/2/15 90/31/15 54/31/15
f 26/23/16 10/31/16 18/2/16
f 36/32/17 26/23/17 30/3/17
f 39/33/18 33/34/18 21/29/18
f 38/35/19 35/36/19 25/28/19
f 37/37/20 34/38/20 22/12/20
f 37/37/21 27/25/21 26/23/21
f 35/36/22 39/33/22 29/20/22
f 24/9/23 22/12/23 74/12/23
f 38/35/24 28/11/24 24/9/24
f 7/39/25 8/41/25 21/40/25
f 40/42/26 30/3/26 23/1/26
f 20/43/27 40/42/27 31/44/27
f 15/45/28 38/35/28 32/46/28
f 2/16/29 32/46/29 34/38/29
f 9/47/30 17/48/30 39/33/30
f 14/49/31 37/37/31 36/32/31
f 1/15/32 34/38/32 37/37/32
f 15/45/33 9/47/33 35/36/33
f 17/48/34 6/50/34 33/34/34
f 12/51/35 36/32/35 40/42/35
f 21/40/36 33/6/36 31/52/36
f 52/53/37 56/54/37 72/54/37
f 41/41/38 42/39/38 58/39/38
f 85/55/39 47/55/39 44/56/39
f 93/41/40 94/39/40 42/39/40
f 96/53/41 48/53/41 43/54/41
f 93/30/42 41/30/42 48/22/42
f 94/57/43 95/2/43 43/2/43
f 87/31/44 88/24/44 44/24/44
f 56/2/45 54/31/45 70/31/45
f 48/53/46 64/53/46 59/54/46
f 81/55/47 82/56/47 55/56/47
f 92/22/48 52/22/48 53/21/48
f 92/53/49 89/54/49 56/54/49
f 83/26/50 49/26/50 55/24/50
f 84/13/51 81/10/51 51/10/51
f 84/13/52 50/13/52 49/26/52
f 64/53/53 57/59/53 58/58/53
f 63/55/54 62/4/54 61/5/54
f 65/26/55 66/13/55 67/55/55
f 69/4/56 68/53/56 72/54/56
f 42/57/57 43/2/57 59/2/57
f 50/13/58 66/13/58 65/26/58
f 45/31/59 44/24/59 60/24/59
f 50/13/60 51/10/60 67/10/60
f 46/4/61 45/5/61 61/5/61
f 52/22/62 68/22/62 69/21/62
f 46/21/63 62/21/63 63/10/63
f 53/4/64 69/4/64 70/5/64
f 47/55/65 63/55/65 60/56/65
f 49/26/66 65/26/66 71/24/66
f 41/30/67 57/30/67 64/22/67
f 51/55/68 55/56/68 71/56/68
f 73/38/69 77/38/69 78/12/69
f 34/38/70 73/38/70 74/12/70
f 32/46/71 24/9/71 75/9/71
f 32/46/72 76/46/72 73/38/72
f 78/12/69 77/38/69 97/38/69
f 76/46/73 80/46/73 77/38/73
f 75/9/74 74/12/74 78/12/74
f 76/46/75 75/9/75 79/9/75
f 4/13/76 84/13/76 83/26/76
f 4/13/77 13/10/77 81/10/77
f 3/26/78 83/26/78 82/24/78
f 13/55/79 16/56/79 82/56/79
f 10/31/80 16/24/80 88/24/80
f 13/55/81 85/55/81 88/56/81
f 11/21/82 86/21/82 85/10/82
f 11/4/83 10/5/83 87/5/83
f 19/53/84 18/54/84 89/54/84
f 19/22/85 92/22/85 91/21/85
f 18/2/86 10/31/86 90/31/86
f 11/4/87 91/4/87 90/5/87
f 7/57/88 18/2/88 95/2/88
f 8/30/89 93/30/89 96/22/89
f 19/53/90 96/53/90 95/54/90
f 7/39/91 94/39/91 93/41/91
f 97/38/92 100/46/92 99/9/92
f 77/38/93 80/46/93 100/46/93
f 78/12/94 98/12/94 99/9/94
f 79/9/95 99/9/95 100/46/95
f 23/1/96 18/2/96 7/57/96
f 86/4/97 45/5/97 46/4/97
f 33/6/3 5/7/3 31/52/3
f 24/9/98 13/10/98 4/13/98
f 22/12/99 4/13/99 3/26/99
f 15/14/6 1/15/6 14/60/6
f 20/17/6 9/18/6 12/27/6
f 29/20/100 11/21/100 25/28/100
f 86/21/8 47/10/8 85/10/8
f 26/23/101 16/24/101 10/31/101
f 22/12/102 16/24/102 27/25/102
f 91/4/103 54/5/103 90/5/103
f 12/27/6 15/14/6 14/60/6
f 28/11/104 11/21/104 13/10/104
f 21/29/105 19/22/105 29/20/105
f 5/7/14 17/19/14 20/17/14
f 89/2/15 54/31/15 56/2/15
f 26/23/106 18/2/106 30/3/106
f 36/32/107 30/3/107 40/42/107
f 39/33/108 21/29/108 29/20/108
f 38/35/19 25/28/19 28/11/19
f 37/37/109 22/12/109 27/25/109
f 37/37/110 26/23/110 36/32/110
f 35/36/111 29/20/111 25/28/111
f 24/9/112 74/12/112 75/9/112
f 38/35/113 24/9/113 32/46/113
f 7/39/114 21/40/114 23/61/114
f 40/42/115 23/1/115 31/44/115
f 20/43/116 31/44/116 5/62/116
f 15/45/117 32/46/117 2/16/117
f 2/16/118 34/38/118 1/15/118
f 9/47/119 39/33/119 35/36/119
f 14/49/120 36/32/120 12/51/120
f 1/15/121 37/37/121 14/49/121
f 15/45/19 35/36/19 38/35/19
f 17/48/122 33/34/122 39/33/122
f 12/51/123 40/42/123 20/43/123
f 21/40/124 31/52/124 23/61/124
f 52/53/37 72/54/37 68/53/37
f 41/41/38 58/39/38 57/41/38
f 85/55/125 44/56/125 88/56/125
f 93/41/126 42/39/126 41/41/126
f 96/53/127 43/54/127 95/54/127
f 93/30/128 48/22/128 96/22/128
f 94/57/129 43/2/129 42/57/129
f 87/31/44 44/24/44 45/31/44
f 56/2/45 70/31/45 72/2/45
f 48/53/46 59/54/46 43/54/46
f 81/55/130 55/56/130 51/55/130
f 92/22/48 53/21/48 91/21/48
f 92/53/131 56/54/131 52/53/131
f 83/26/132 55/24/132 82/24/132
f 84/13/133 51/10/133 50/13/133
f 84/13/134 49/26/134 83/26/134
f 64/53/53 58/58/53 59/54/53
f 63/55/54 61/5/54 60/56/54
f 65/26/55 67/55/55 71/56/55
f 69/4/56 72/54/56 70/5/56
f 42/57/57 59/2/57 58/57/57
f 50/13/58 65/26/58 49/26/58
f 45/31/59 60/24/59 61/31/59
f 50/13/60 67/10/60 66/13/60
f 46/4/61 61/5/61 62/4/61
f 52/22/62 69/21/62 53/21/62
f 46/21/63 63/10/63 47/10/63
f 53/4/64 70/5/64 54/5/64
f 47/55/65 60/56/65 44/56/65
f 49/26/66 71/24/66 55/24/66
f 41/30/67 64/22/67 48/22/67
f 51/55/68 71/56/68 67/55/68
f 73/38/69 78/12/69 74/12/69
f 34/38/135 74/12/135 22/12/135
f 32/46/136 75/9/136 76/46/136
f 32/46/137 73/38/137 34/38/137
f 78/12/69 97/38/69 98/12/69
f 76/46/73 77/38/73 73/38/73
f 75/9/138 78/12/138 79/9/138
f 76/46/95 79/9/95 80/46/95
f 4/13/139 83/26/139 3/26/139
f 4/13/140 81/10/140 84/13/140
f 3/26/141 82/24/141 16/24/141
f 13/55/142 82/56/142 81/55/142
f 10/31/143 88/24/143 87/31/143
f 13/55/144 88/56/144 16/56/144
f 11/21/145 85/10/145 13/10/145
f 11/4/146 87/5/146 86/4/146
f 19/53/147 89/54/147 92/53/147
f 19/22/148 91/21/148 11/21/148
f 18/2/149 90/31/149 89/2/149
f 11/4/150 90/5/150 10/5/150
f 7/57/151 95/2/151 94/57/151
f 8/30/152 96/22/152 19/22/152
f 19/53/153 95/54/153 18/54/153
f 7/39/154 93/41/154 8/41/154
f 97/38/92 99/9/92 98/12/92
f 77/38/93 100/46/93 97/38/93
f 78/12/94 99/9/94 79/9/94
f 79/9/95 100/46/95 80/46/95
