{
	"asset":{
		"generator":"Khronos glTF Blender I/O v4.3.47",
		"version":"2.0"
	},
	"scene":0,
	"scenes":[
		{
			"name":"Scene",
			"nodes":[
				2
			]
		}
	],
	"nodes":[
		{
			"name":"born"
		},
		{
			"mesh":0,
			"name":"Cube",
			"skin":0
		},
		{
			"children":[
				1,
				0
			],
			"name":"arm"
		}
	],
	"animations":[
		{
			"channels":[
				{
					"sampler":0,
					"target":{
						"node":0,
						"path":"translation"
					}
				},
				{
					"sampler":1,
					"target":{
						"node":0,
						"path":"rotation"
					}
				},
				{
					"sampler":2,
					"target":{
						"node":0,
						"path":"scale"
					}
				}
			],
			"name":"attack",
			"samplers":[
				{
					"input":7,
					"interpolation":"LINEAR",
					"output":8
				},
				{
					"input":7,
					"interpolation":"LINEAR",
					"output":9
				},
				{
					"input":7,
					"interpolation":"LINEAR",
					"output":10
				}
			]
		},
		{
			"channels":[
				{
					"sampler":0,
					"target":{
						"node":0,
						"path":"translation"
					}
				},
				{
					"sampler":1,
					"target":{
						"node":0,
						"path":"rotation"
					}
				},
				{
					"sampler":2,
					"target":{
						"node":0,
						"path":"scale"
					}
				}
			],
			"name":"default",
			"samplers":[
				{
					"input":11,
					"interpolation":"STEP",
					"output":12
				},
				{
					"input":11,
					"interpolation":"STEP",
					"output":13
				},
				{
					"input":14,
					"interpolation":"LINEAR",
					"output":15
				}
			]
		},
		{
			"channels":[
				{
					"sampler":0,
					"target":{
						"node":0,
						"path":"translation"
					}
				},
				{
					"sampler":1,
					"target":{
						"node":0,
						"path":"rotation"
					}
				},
				{
					"sampler":2,
					"target":{
						"node":0,
						"path":"scale"
					}
				}
			],
			"name":"hited",
			"samplers":[
				{
					"input":16,
					"interpolation":"STEP",
					"output":17
				},
				{
					"input":18,
					"interpolation":"LINEAR",
					"output":19
				},
				{
					"input":18,
					"interpolation":"LINEAR",
					"output":20
				}
			]
		},
		{
			"channels":[
				{
					"sampler":0,
					"target":{
						"node":0,
						"path":"translation"
					}
				},
				{
					"sampler":1,
					"target":{
						"node":0,
						"path":"rotation"
					}
				},
				{
					"sampler":2,
					"target":{
						"node":0,
						"path":"scale"
					}
				}
			],
			"name":"move",
			"samplers":[
				{
					"input":21,
					"interpolation":"LINEAR",
					"output":22
				},
				{
					"input":23,
					"interpolation":"STEP",
					"output":24
				},
				{
					"input":21,
					"interpolation":"LINEAR",
					"output":25
				}
			]
		},
		{
			"channels":[
				{
					"sampler":0,
					"target":{
						"node":1,
						"path":"translation"
					}
				},
				{
					"sampler":1,
					"target":{
						"node":1,
						"path":"rotation"
					}
				},
				{
					"sampler":2,
					"target":{
						"node":1,
						"path":"scale"
					}
				}
			],
			"name":"attack.001",
			"samplers":[
				{
					"input":26,
					"interpolation":"LINEAR",
					"output":27
				},
				{
					"input":26,
					"interpolation":"LINEAR",
					"output":28
				},
				{
					"input":26,
					"interpolation":"LINEAR",
					"output":29
				}
			]
		}
	],
	"materials":[
		{
			"doubleSided":true,
			"name":"Material",
			"pbrMetallicRoughness":{
				"baseColorTexture":{
					"index":0
				},
				"metallicFactor":0,
				"roughnessFactor":0.5
			}
		}
	],
	"meshes":[
		{
			"name":"Cube",
			"primitives":[
				{
					"attributes":{
						"POSITION":0,
						"NORMAL":1,
						"TEXCOORD_0":2,
						"JOINTS_0":3,
						"WEIGHTS_0":4
					},
					"indices":5,
					"material":0
				}
			]
		}
	],
	"textures":[
		{
			"sampler":0,
			"source":0
		}
	],
	"images":[
		{
			"mimeType":"image/png",
			"name":"normalEnemy",
			"uri":"normalEnemy.png"
		}
	],
	"skins":[
		{
			"inverseBindMatrices":6,
			"joints":[
				0
			],
			"name":"arm"
		}
	],
	"accessors":[
		{
			"bufferView":0,
			"componentType":5126,
			"count":1696,
			"max":[
				1.4209589958190918,
				2.6611812114715576,
				1.2021898031234741
			],
			"min":[
				-1.4209589958190918,
				0.008236914873123169,
				-1.185842514038086
			],
			"type":"VEC3"
		},
		{
			"bufferView":1,
			"componentType":5126,
			"count":1696,
			"type":"VEC3"
		},
		{
			"bufferView":2,
			"componentType":5126,
			"count":1696,
			"type":"VEC2"
		},
		{
			"bufferView":3,
			"componentType":5121,
			"count":1696,
			"type":"VEC4"
		},
		{
			"bufferView":4,
			"componentType":5126,
			"count":1696,
			"type":"VEC4"
		},
		{
			"bufferView":5,
			"componentType":5123,
			"count":2544,
			"type":"SCALAR"
		},
		{
			"bufferView":6,
			"componentType":5126,
			"count":1,
			"type":"MAT4"
		},
		{
			"bufferView":7,
			"componentType":5126,
			"count":25,
			"max":[
				1.0416666666666667
			],
			"min":[
				0.041666666666666664
			],
			"type":"SCALAR"
		},
		{
			"bufferView":8,
			"componentType":5126,
			"count":25,
			"type":"VEC3"
		},
		{
			"bufferView":9,
			"componentType":5126,
			"count":25,
			"type":"VEC4"
		},
		{
			"bufferView":10,
			"componentType":5126,
			"count":25,
			"type":"VEC3"
		},
		{
			"bufferView":11,
			"componentType":5126,
			"count":2,
			"max":[
				1.25
			],
			"min":[
				0.041666666666666664
			],
			"type":"SCALAR"
		},
		{
			"bufferView":12,
			"componentType":5126,
			"count":2,
			"type":"VEC3"
		},
		{
			"bufferView":13,
			"componentType":5126,
			"count":2,
			"type":"VEC4"
		},
		{
			"bufferView":14,
			"componentType":5126,
			"count":30,
			"max":[
				1.25
			],
			"min":[
				0.041666666666666664
			],
			"type":"SCALAR"
		},
		{
			"bufferView":15,
			"componentType":5126,
			"count":30,
			"type":"VEC3"
		},
		{
			"bufferView":16,
			"componentType":5126,
			"count":2,
			"max":[
				1
			],
			"min":[
				0.041666666666666664
			],
			"type":"SCALAR"
		},
		{
			"bufferView":17,
			"componentType":5126,
			"count":2,
			"type":"VEC3"
		},
		{
			"bufferView":18,
			"componentType":5126,
			"count":24,
			"max":[
				1
			],
			"min":[
				0.041666666666666664
			],
			"type":"SCALAR"
		},
		{
			"bufferView":19,
			"componentType":5126,
			"count":24,
			"type":"VEC4"
		},
		{
			"bufferView":20,
			"componentType":5126,
			"count":24,
			"type":"VEC3"
		},
		{
			"bufferView":21,
			"componentType":5126,
			"count":56,
			"max":[
				2.3333333333333335
			],
			"min":[
				0.041666666666666664
			],
			"type":"SCALAR"
		},
		{
			"bufferView":22,
			"componentType":5126,
			"count":56,
			"type":"VEC3"
		},
		{
			"bufferView":23,
			"componentType":5126,
			"count":2,
			"max":[
				2.3333333333333335
			],
			"min":[
				0.041666666666666664
			],
			"type":"SCALAR"
		},
		{
			"bufferView":24,
			"componentType":5126,
			"count":2,
			"type":"VEC4"
		},
		{
			"bufferView":25,
			"componentType":5126,
			"count":56,
			"type":"VEC3"
		},
		{
			"bufferView":26,
			"componentType":5126,
			"count":1,
			"max":[
				0.041666666666666664
			],
			"min":[
				0.041666666666666664
			],
			"type":"SCALAR"
		},
		{
			"bufferView":27,
			"componentType":5126,
			"count":1,
			"type":"VEC3"
		},
		{
			"bufferView":28,
			"componentType":5126,
			"count":1,
			"type":"VEC4"
		},
		{
			"bufferView":29,
			"componentType":5126,
			"count":1,
			"type":"VEC3"
		}
	],
	"bufferViews":[
		{
			"buffer":0,
			"byteLength":20352,
			"byteOffset":0,
			"target":34962
		},
		{
			"buffer":0,
			"byteLength":20352,
			"byteOffset":20352,
			"target":34962
		},
		{
			"buffer":0,
			"byteLength":13568,
			"byteOffset":40704,
			"target":34962
		},
		{
			"buffer":0,
			"byteLength":6784,
			"byteOffset":54272,
			"target":34962
		},
		{
			"buffer":0,
			"byteLength":27136,
			"byteOffset":61056,
			"target":34962
		},
		{
			"buffer":0,
			"byteLength":5088,
			"byteOffset":88192,
			"target":34963
		},
		{
			"buffer":0,
			"byteLength":64,
			"byteOffset":93280
		},
		{
			"buffer":0,
			"byteLength":100,
			"byteOffset":93344
		},
		{
			"buffer":0,
			"byteLength":300,
			"byteOffset":93444
		},
		{
			"buffer":0,
			"byteLength":400,
			"byteOffset":93744
		},
		{
			"buffer":0,
			"byteLength":300,
			"byteOffset":94144
		},
		{
			"buffer":0,
			"byteLength":8,
			"byteOffset":94444
		},
		{
			"buffer":0,
			"byteLength":24,
			"byteOffset":94452
		},
		{
			"buffer":0,
			"byteLength":32,
			"byteOffset":94476
		},
		{
			"buffer":0,
			"byteLength":120,
			"byteOffset":94508
		},
		{
			"buffer":0,
			"byteLength":360,
			"byteOffset":94628
		},
		{
			"buffer":0,
			"byteLength":8,
			"byteOffset":94988
		},
		{
			"buffer":0,
			"byteLength":24,
			"byteOffset":94996
		},
		{
			"buffer":0,
			"byteLength":96,
			"byteOffset":95020
		},
		{
			"buffer":0,
			"byteLength":384,
			"byteOffset":95116
		},
		{
			"buffer":0,
			"byteLength":288,
			"byteOffset":95500
		},
		{
			"buffer":0,
			"byteLength":224,
			"byteOffset":95788
		},
		{
			"buffer":0,
			"byteLength":672,
			"byteOffset":96012
		},
		{
			"buffer":0,
			"byteLength":8,
			"byteOffset":96684
		},
		{
			"buffer":0,
			"byteLength":32,
			"byteOffset":96692
		},
		{
			"buffer":0,
			"byteLength":672,
			"byteOffset":96724
		},
		{
			"buffer":0,
			"byteLength":4,
			"byteOffset":97396
		},
		{
			"buffer":0,
			"byteLength":12,
			"byteOffset":97400
		},
		{
			"buffer":0,
			"byteLength":16,
			"byteOffset":97412
		},
		{
			"buffer":0,
			"byteLength":12,
			"byteOffset":97428
		}
	],
	"samplers":[
		{
			"magFilter":9729,
			"minFilter":9987
		}
	],
	"buffers":[
		{
			"byteLength":97440,
			"uri":"enemy.bin"
		}
	]
}
