{
	"asset":{
		"generator":"Khronos glTF Blender I/O v4.3.47",
		"version":"2.0"
	},
	"scene":0,
	"scenes":[
		{
			"name":"Scene",
			"nodes":[
				2
			]
		}
	],
	"nodes":[
		{
			"name":"born"
		},
		{
			"mesh":0,
			"name":"Cube",
			"skin":0
		},
		{
			"children":[
				1,
				0
			],
			"name":"arm"
		}
	],
	"animations":[
		{
			"channels":[
				{
					"sampler":0,
					"target":{
						"node":0,
						"path":"translation"
					}
				},
				{
					"sampler":1,
					"target":{
						"node":0,
						"path":"rotation"
					}
				},
				{
					"sampler":2,
					"target":{
						"node":0,
						"path":"scale"
					}
				}
			],
			"name":"default",
			"samplers":[
				{
					"input":7,
					"interpolation":"STEP",
					"output":8
				},
				{
					"input":7,
					"interpolation":"STEP",
					"output":9
				},
				{
					"input":10,
					"interpolation":"LINEAR",
					"output":11
				}
			]
		},
		{
			"channels":[
				{
					"sampler":0,
					"target":{
						"node":0,
						"path":"translation"
					}
				},
				{
					"sampler":1,
					"target":{
						"node":0,
						"path":"rotation"
					}
				},
				{
					"sampler":2,
					"target":{
						"node":0,
						"path":"scale"
					}
				}
			],
			"name":"move",
			"samplers":[
				{
					"input":12,
					"interpolation":"LINEAR",
					"output":13
				},
				{
					"input":14,
					"interpolation":"STEP",
					"output":15
				},
				{
					"input":12,
					"interpolation":"LINEAR",
					"output":16
				}
			]
		}
	],
	"materials":[
		{
			"doubleSided":true,
			"name":"Material",
			"pbrMetallicRoughness":{
				"baseColorTexture":{
					"index":0
				},
				"metallicFactor":0,
				"roughnessFactor":0.5
			}
		}
	],
	"meshes":[
		{
			"name":"Cube",
			"primitives":[
				{
					"attributes":{
						"POSITION":0,
						"NORMAL":1,
						"TEXCOORD_0":2,
						"JOINTS_0":3,
						"WEIGHTS_0":4
					},
					"indices":5,
					"material":0
				}
			]
		}
	],
	"textures":[
		{
			"sampler":0,
			"source":0
		}
	],
	"images":[
		{
			"mimeType":"image/png",
			"name":"normalEnemy",
			"uri":"normalEnemy.png"
		}
	],
	"skins":[
		{
			"inverseBindMatrices":6,
			"joints":[
				0
			],
			"name":"arm"
		}
	],
	"accessors":[
		{
			"bufferView":0,
			"componentType":5126,
			"count":1696,
			"max":[
				1.4209589958190918,
				2.6611812114715576,
				1.2021898031234741
			],
			"min":[
				-1.4209589958190918,
				0.008236914873123169,
				-1.185842514038086
			],
			"type":"VEC3"
		},
		{
			"bufferView":1,
			"componentType":5126,
			"count":1696,
			"type":"VEC3"
		},
		{
			"bufferView":2,
			"componentType":5126,
			"count":1696,
			"type":"VEC2"
		},
		{
			"bufferView":3,
			"componentType":5121,
			"count":1696,
			"type":"VEC4"
		},
		{
			"bufferView":4,
			"componentType":5126,
			"count":1696,
			"type":"VEC4"
		},
		{
			"bufferView":5,
			"componentType":5123,
			"count":2544,
			"type":"SCALAR"
		},
		{
			"bufferView":6,
			"componentType":5126,
			"count":1,
			"type":"MAT4"
		},
		{
			"bufferView":7,
			"componentType":5126,
			"count":2,
			"max":[
				1.25
			],
			"min":[
				0.041666666666666664
			],
			"type":"SCALAR"
		},
		{
			"bufferView":8,
			"componentType":5126,
			"count":2,
			"type":"VEC3"
		},
		{
			"bufferView":9,
			"componentType":5126,
			"count":2,
			"type":"VEC4"
		},
		{
			"bufferView":10,
			"componentType":5126,
			"count":30,
			"max":[
				1.25
			],
			"min":[
				0.041666666666666664
			],
			"type":"SCALAR"
		},
		{
			"bufferView":11,
			"componentType":5126,
			"count":30,
			"type":"VEC3"
		},
		{
			"bufferView":12,
			"componentType":5126,
			"count":56,
			"max":[
				2.3333333333333335
			],
			"min":[
				0.041666666666666664
			],
			"type":"SCALAR"
		},
		{
			"bufferView":13,
			"componentType":5126,
			"count":56,
			"type":"VEC3"
		},
		{
			"bufferView":14,
			"componentType":5126,
			"count":2,
			"max":[
				2.3333333333333335
			],
			"min":[
				0.041666666666666664
			],
			"type":"SCALAR"
		},
		{
			"bufferView":15,
			"componentType":5126,
			"count":2,
			"type":"VEC4"
		},
		{
			"bufferView":16,
			"componentType":5126,
			"count":56,
			"type":"VEC3"
		}
	],
	"bufferViews":[
		{
			"buffer":0,
			"byteLength":20352,
			"byteOffset":0,
			"target":34962
		},
		{
			"buffer":0,
			"byteLength":20352,
			"byteOffset":20352,
			"target":34962
		},
		{
			"buffer":0,
			"byteLength":13568,
			"byteOffset":40704,
			"target":34962
		},
		{
			"buffer":0,
			"byteLength":6784,
			"byteOffset":54272,
			"target":34962
		},
		{
			"buffer":0,
			"byteLength":27136,
			"byteOffset":61056,
			"target":34962
		},
		{
			"buffer":0,
			"byteLength":5088,
			"byteOffset":88192,
			"target":34963
		},
		{
			"buffer":0,
			"byteLength":64,
			"byteOffset":93280
		},
		{
			"buffer":0,
			"byteLength":8,
			"byteOffset":93344
		},
		{
			"buffer":0,
			"byteLength":24,
			"byteOffset":93352
		},
		{
			"buffer":0,
			"byteLength":32,
			"byteOffset":93376
		},
		{
			"buffer":0,
			"byteLength":120,
			"byteOffset":93408
		},
		{
			"buffer":0,
			"byteLength":360,
			"byteOffset":93528
		},
		{
			"buffer":0,
			"byteLength":224,
			"byteOffset":93888
		},
		{
			"buffer":0,
			"byteLength":672,
			"byteOffset":94112
		},
		{
			"buffer":0,
			"byteLength":8,
			"byteOffset":94784
		},
		{
			"buffer":0,
			"byteLength":32,
			"byteOffset":94792
		},
		{
			"buffer":0,
			"byteLength":672,
			"byteOffset":94824
		}
	],
	"samplers":[
		{
			"magFilter":9729,
			"minFilter":9987
		}
	],
	"buffers":[
		{
			"byteLength":95496,
			"uri":"enemy.bin"
		}
	]
}
