# Blender 4.2.3 LTS
# www.blender.org
mtllib razer.mtl
o razer
v 0.045000 -0.000000 0.001110
v 0.045015 0.000007 200.001114
v 0.044135 -0.008779 0.001110
v 0.044151 -0.008772 200.001114
v 0.041575 -0.017221 0.001110
v 0.041591 -0.017214 200.001114
v 0.037416 -0.025001 0.001110
v 0.037432 -0.024994 200.001114
v 0.031820 -0.031820 0.001110
v 0.031836 -0.031813 200.001114
v 0.025000 -0.037416 0.001110
v 0.025016 -0.037409 200.001114
v 0.017221 -0.041575 0.001110
v 0.017236 -0.041567 200.001114
v 0.008779 -0.044135 0.001110
v 0.008794 -0.044128 200.001114
v 0.000000 -0.045000 0.001110
v 0.000015 -0.044993 200.001114
v -0.008779 -0.044135 0.001110
v -0.008763 -0.044128 200.001114
v -0.017221 -0.041575 0.001110
v -0.017205 -0.041567 200.001114
v -0.025000 -0.037416 0.001110
v -0.024985 -0.037409 200.001114
v -0.031820 -0.031820 0.001110
v -0.031804 -0.031813 200.001114
v -0.037416 -0.025001 0.001110
v -0.037400 -0.024994 200.001114
v -0.041575 -0.017221 0.001110
v -0.041559 -0.017214 200.001114
v -0.044135 -0.008779 0.001110
v -0.044119 -0.008772 200.001114
v -0.045000 -0.000000 0.001110
v -0.044985 0.000007 200.001114
v -0.044135 0.008779 0.001110
v -0.044119 0.008786 200.001114
v -0.041575 0.017221 0.001110
v -0.041559 0.017228 200.001114
v -0.037416 0.025001 0.001110
v -0.037400 0.025008 200.001114
v -0.031820 0.031820 0.001110
v -0.031804 0.031827 200.001114
v -0.025000 0.037416 0.001110
v -0.024985 0.037423 200.001114
v -0.017221 0.041574 0.001110
v -0.017205 0.041582 200.001114
v -0.008779 0.044135 0.001110
v -0.008763 0.044142 200.001114
v 0.000000 0.045000 0.001110
v 0.000015 0.045007 200.001114
v 0.008779 0.044135 0.001110
v 0.008794 0.044142 200.001114
v 0.017221 0.041574 0.001110
v 0.017236 0.041582 200.001114
v 0.025000 0.037416 0.001110
v 0.025016 0.037423 200.001114
v 0.031820 0.031820 0.001110
v 0.031836 0.031827 200.001114
v 0.037416 0.025001 0.001110
v 0.037432 0.025008 200.001114
v 0.041575 0.017221 0.001110
v 0.041591 0.017228 200.001114
v 0.044135 0.008779 0.001110
v 0.044151 0.008786 200.001114
vn 0.9952 -0.0980 -0.0000
vn 0.9569 -0.2903 -0.0000
vn 0.8819 -0.4714 -0.0000
vn 0.7730 -0.6344 -0.0000
vn 0.6344 -0.7730 -0.0000
vn 0.4714 -0.8819 -0.0000
vn 0.2902 -0.9570 -0.0000
vn 0.0981 -0.9952 -0.0000
vn -0.0981 -0.9952 -0.0000
vn -0.2902 -0.9570 -0.0000
vn -0.4714 -0.8819 -0.0000
vn -0.6344 -0.7730 -0.0000
vn -0.7730 -0.6344 -0.0000
vn -0.8819 -0.4714 -0.0000
vn -0.9569 -0.2903 -0.0000
vn -0.9952 -0.0980 -0.0000
vn -0.9952 0.0980 -0.0000
vn -0.9569 0.2903 -0.0000
vn -0.8819 0.4714 -0.0000
vn -0.7730 0.6344 -0.0000
vn -0.6344 0.7730 -0.0000
vn -0.4714 0.8819 -0.0000
vn -0.2903 0.9569 -0.0000
vn -0.0980 0.9952 -0.0000
vn 0.0980 0.9952 -0.0000
vn 0.2903 0.9569 -0.0000
vn 0.4714 0.8819 -0.0000
vn 0.6344 0.7730 -0.0000
vn 0.7730 0.6344 -0.0000
vn 0.8819 0.4714 -0.0000
vn -0.0000 -0.0005 1.0000
vn 0.9569 0.2903 -0.0000
vn 0.9952 0.0980 -0.0000
vn -0.0000 -0.0000 -1.0000
vn 0.9570 -0.2902 -0.0000
vn 0.2903 -0.9569 -0.0000
vn 0.0980 -0.9952 -0.0000
vn -0.0980 -0.9952 -0.0000
vn -0.2903 -0.9569 -0.0000
vn -0.9570 -0.2902 -0.0000
vn -0.9952 -0.0981 -0.0000
vn -0.9952 0.0981 -0.0000
vn -0.0981 0.9952 -0.0000
vn 0.0981 0.9952 -0.0000
vn 0.2902 0.9570 -0.0000
vn -0.0157 -0.0058 0.9999
vn -0.0156 -0.0058 0.9999
vn 0.0156 0.0079 0.9998
vn 0.0157 0.0079 0.9998
vn 0.0158 0.0079 0.9998
vn -0.0000 -0.0000 1.0000
vn -0.0000 -0.0158 0.9999
vn -0.0000 -0.0157 0.9999
vn -0.0030 0.0157 0.9999
vn -0.0000 -0.0313 0.9995
vn -0.0000 -0.0315 0.9995
vn -0.0000 -0.0316 0.9995
vn -0.0000 -0.0079 1.0000
vn -0.0157 0.0058 0.9999
vn 0.0156 -0.0078 0.9998
vn 0.0157 -0.0078 0.9998
vn 0.0158 -0.0078 0.9998
vn -0.0079 0.0079 0.9999
vn -0.0078 0.0079 0.9999
vn 0.0118 0.0315 0.9994
vn 0.0117 0.0313 0.9994
vn 0.0117 0.0312 0.9994
vn 0.0039 0.0158 0.9999
vn 0.0040 0.0159 0.9999
vn 0.0040 0.0158 0.9999
vn -0.0237 0.0160 0.9996
vn -0.0234 0.0157 0.9996
vn -0.0233 0.0155 0.9996
vn 0.0078 0.0039 1.0000
vn 0.0079 0.0039 1.0000
vn -0.0040 -0.0000 1.0000
vn -0.0000 -0.0040 1.0000
vn -0.0000 0.0101 0.9999
vn -0.0000 0.0090 1.0000
vn 0.0041 -0.0000 1.0000
vn -0.0010 -0.0100 0.9999
vn -0.0010 -0.0101 0.9999
vn -0.0000 -0.0101 0.9999
vn 0.0040 0.0040 1.0000
vn 0.0017 -0.0000 1.0000
vn -0.0000 -0.0029 1.0000
vn 0.0011 -0.0000 1.0000
vn -0.0003 0.0009 1.0000
vn -0.0008 -0.0000 -1.0000
vn 0.0008 -0.0000 -1.0000
vt 0.500000 0.000166
vt 0.000166 0.031406
vt 0.000166 0.000166
vt 0.500000 0.031406
vt 0.000166 0.062645
vt 0.500000 0.062645
vt 0.000166 0.093885
vt 0.500000 0.093885
vt 0.000166 0.125125
vt 0.500000 0.125125
vt 0.000166 0.156364
vt 0.500000 0.156364
vt 0.000166 0.187604
vt 0.500000 0.187604
vt 0.000166 0.218843
vt 0.500000 0.218843
vt 0.000166 0.250083
vt 0.500000 0.250083
vt 0.000166 0.281323
vt 0.500000 0.281323
vt 0.000166 0.312562
vt 0.500000 0.312562
vt 0.000166 0.343802
vt 0.500000 0.343802
vt 0.000166 0.375041
vt 0.500000 0.375041
vt 0.000166 0.406281
vt 0.500000 0.406281
vt 0.000166 0.437521
vt 0.500000 0.437521
vt 0.000166 0.468760
vt 0.500000 0.468760
vt 0.000166 0.500000
vt 0.500000 0.500000
vt 0.000166 0.531240
vt 0.500000 0.531240
vt 0.000166 0.562479
vt 0.500000 0.562479
vt 0.000166 0.593719
vt 0.500000 0.593719
vt 0.000166 0.624958
vt 0.500000 0.624958
vt 0.000166 0.656198
vt 0.500000 0.656198
vt 0.000166 0.687438
vt 0.500000 0.687438
vt 0.000166 0.718677
vt 0.500000 0.718677
vt 0.000166 0.749917
vt 0.500000 0.749917
vt 0.000166 0.781156
vt 0.500000 0.781156
vt 0.000166 0.812396
vt 0.500000 0.843636
vt 0.000166 0.843636
vt 0.000166 0.874875
vt 0.500000 0.874875
vt 0.000166 0.906115
vt 0.500000 0.906115
vt 0.000166 0.937355
vt 0.509508 0.786438
vt 0.669452 0.487204
vt 0.968687 0.647148
vt 0.500000 0.937355
vt 0.000166 0.968594
vt 0.500000 0.968594
vt 0.000166 0.999834
vt 0.715581 0.000166
vt 0.500332 0.262448
vt 0.762614 0.477696
vt 0.500000 0.812396
vt 0.977862 0.693277
vt 0.977862 0.740310
vt 0.968687 0.786439
vt 0.950688 0.829891
vt 0.924558 0.868997
vt 0.891301 0.902254
vt 0.852195 0.928384
vt 0.808742 0.946383
vt 0.762614 0.955558
vt 0.715581 0.955558
vt 0.669452 0.946383
vt 0.626000 0.928384
vt 0.586893 0.902254
vt 0.553636 0.868997
vt 0.527507 0.829891
vt 0.500332 0.740310
vt 0.500332 0.693277
vt 0.509508 0.647148
vt 0.527507 0.603696
vt 0.553637 0.564590
vt 0.586894 0.531332
vt 0.626000 0.505203
vt 0.715581 0.478028
vt 0.762614 0.478028
vt 0.808743 0.487204
vt 0.852195 0.505203
vt 0.891301 0.531333
vt 0.924558 0.564590
vt 0.950688 0.603696
vt 0.500000 0.999834
vt 0.808743 0.468520
vt 0.852195 0.450522
vt 0.891301 0.424392
vt 0.924558 0.391135
vt 0.950688 0.352029
vt 0.968687 0.308576
vt 0.977862 0.262447
vt 0.977862 0.215415
vt 0.968687 0.169286
vt 0.950688 0.125833
vt 0.924558 0.086727
vt 0.891301 0.053470
vt 0.852195 0.027340
vt 0.808742 0.009342
vt 0.762614 0.000166
vt 0.669452 0.009342
vt 0.626000 0.027340
vt 0.586893 0.053470
vt 0.553636 0.086727
vt 0.527507 0.125834
vt 0.509508 0.169286
vt 0.500332 0.215415
vt 0.509508 0.308576
vt 0.527507 0.352029
vt 0.553636 0.391135
vt 0.586894 0.424392
vt 0.626000 0.450522
vt 0.669452 0.468521
vt 0.715581 0.477696
s 0
usemtl razerMaterial
f 2/1/1 3/2/1 1/3/1
f 4/4/2 5/5/2 3/2/2
f 6/6/3 7/7/3 5/5/3
f 8/8/4 9/9/4 7/7/4
f 10/10/5 11/11/5 9/9/5
f 12/12/6 13/13/6 11/11/6
f 14/14/7 15/15/7 13/13/7
f 16/16/8 17/17/8 15/15/8
f 18/18/9 19/19/9 17/17/9
f 20/20/10 21/21/10 19/19/10
f 22/22/11 23/23/11 21/21/11
f 24/24/12 25/25/12 23/23/12
f 26/26/13 27/27/13 25/25/13
f 28/28/14 29/29/14 27/27/14
f 30/30/15 31/31/15 29/29/15
f 32/32/16 33/33/16 31/31/16
f 34/34/17 35/35/17 33/33/17
f 36/36/18 37/37/18 35/35/18
f 38/38/19 39/39/19 37/37/19
f 40/40/20 41/41/20 39/39/20
f 42/42/21 43/43/21 41/41/21
f 44/44/22 45/45/22 43/43/22
f 46/46/23 47/47/23 45/45/23
f 48/48/24 49/49/24 47/47/24
f 50/50/25 51/51/25 49/49/25
f 52/52/26 53/53/26 51/51/26
f 53/53/27 56/54/27 55/55/27
f 56/54/28 57/56/28 55/55/28
f 58/57/29 59/58/29 57/56/29
f 60/59/30 61/60/30 59/58/30
f 38/61/31 22/62/31 6/63/31
f 62/64/32 63/65/32 61/60/32
f 64/66/33 1/67/33 63/65/33
f 31/68/34 47/69/34 63/70/34
f 2/1/1 4/4/1 3/2/1
f 4/4/35 6/6/35 5/5/35
f 6/6/3 8/8/3 7/7/3
f 8/8/4 10/10/4 9/9/4
f 10/10/5 12/12/5 11/11/5
f 12/12/6 14/14/6 13/13/6
f 14/14/36 16/16/36 15/15/36
f 16/16/37 18/18/37 17/17/37
f 18/18/38 20/20/38 19/19/38
f 20/20/39 22/22/39 21/21/39
f 22/22/11 24/24/11 23/23/11
f 24/24/12 26/26/12 25/25/12
f 26/26/13 28/28/13 27/27/13
f 28/28/14 30/30/14 29/29/14
f 30/30/40 32/32/40 31/31/40
f 32/32/41 34/34/41 33/33/41
f 34/34/42 36/36/42 35/35/42
f 36/36/18 38/38/18 37/37/18
f 38/38/19 40/40/19 39/39/19
f 40/40/20 42/42/20 41/41/20
f 42/42/21 44/44/21 43/43/21
f 44/44/22 46/46/22 45/45/22
f 46/46/23 48/48/23 47/47/23
f 48/48/43 50/50/43 49/49/43
f 50/50/44 52/52/44 51/51/44
f 52/52/45 54/71/45 53/53/45
f 53/53/27 54/71/27 56/54/27
f 56/54/28 58/57/28 57/56/28
f 58/57/29 60/59/29 59/58/29
f 60/59/30 62/64/30 61/60/30
f 6/63/46 4/72/46 2/73/47
f 2/73/48 64/74/49 62/75/50
f 62/75/51 60/76/51 58/77/51
f 58/77/52 56/78/52 54/79/53
f 54/79/54 52/80/54 50/81/54
f 50/81/53 48/82/53 46/83/53
f 46/83/55 44/84/56 42/85/57
f 42/85/58 40/86/58 38/61/58
f 38/61/59 36/87/59 34/88/59
f 34/88/60 32/89/61 30/90/62
f 30/90/63 28/91/64 26/92/64
f 26/92/65 24/93/66 22/62/67
f 22/62/68 20/94/69 18/95/70
f 18/95/53 16/96/53 14/97/53
f 14/97/71 12/98/72 10/99/73
f 10/99/74 8/100/75 6/63/75
f 6/63/76 2/73/76 62/75/76
f 62/75/77 58/77/77 54/79/77
f 54/79/78 50/81/78 46/83/78
f 46/83/79 42/85/79 38/61/79
f 38/61/80 34/88/80 30/90/80
f 30/90/81 26/92/81 22/62/82
f 22/62/83 18/95/83 14/97/83
f 14/97/84 10/99/84 6/63/84
f 6/63/85 62/75/85 54/79/85
f 54/79/86 46/83/86 38/61/86
f 38/61/87 30/90/87 22/62/87
f 22/62/51 14/97/51 6/63/51
f 6/63/88 54/79/88 38/61/88
f 62/64/32 64/66/32 63/65/32
f 64/66/33 2/101/33 1/67/33
f 63/70/34 1/102/34 3/103/34
f 3/103/34 5/104/34 7/105/34
f 7/105/34 9/106/34 11/107/34
f 11/107/34 13/108/34 15/109/34
f 15/109/34 17/110/34 19/111/34
f 19/111/34 21/112/34 23/113/34
f 23/113/34 25/114/34 27/115/34
f 27/115/34 29/116/34 31/68/34
f 31/68/34 33/117/34 35/118/34
f 35/118/89 37/119/89 39/120/89
f 39/120/34 41/121/34 43/122/34
f 43/122/34 45/123/34 47/69/34
f 47/69/34 49/124/34 51/125/34
f 51/125/34 53/126/34 55/127/34
f 55/127/34 57/128/34 59/129/34
f 59/129/90 61/130/90 63/70/90
f 63/70/34 3/103/34 7/105/34
f 7/105/34 11/107/34 15/109/34
f 15/109/34 19/111/34 23/113/34
f 23/113/34 27/115/34 31/68/34
f 31/68/34 35/118/34 39/120/34
f 39/120/34 43/122/34 47/69/34
f 47/69/34 51/125/34 55/127/34
f 55/127/34 59/129/34 63/70/34
f 63/70/34 7/105/34 15/109/34
f 15/109/34 23/113/34 31/68/34
f 31/68/34 39/120/34 47/69/34
f 47/69/34 55/127/34 63/70/34
f 63/70/34 15/109/34 31/68/34
