# Blender 4.3.0
# www.blender.org
mtllib clutchGauge.mtl
o Cube
v 0.778868 5.144495 0.024050
v 0.778868 -0.018927 0.024050
v 0.016508 5.144495 0.779064
v 0.016508 -0.018927 0.779064
v -0.016508 5.144495 -0.779064
v -0.016508 -0.018927 -0.779064
v -0.778868 5.144495 -0.024050
v -0.778868 -0.018927 -0.024050
vn -0.0000 1.0000 -0.0000
vn -0.7105 -0.0000 0.7037
vn -0.7037 -0.0000 -0.7105
vn -0.0000 -1.0000 -0.0000
vn 0.7037 -0.0000 0.7105
vn 0.7105 -0.0000 -0.7037
vt 0.875000 0.500000
vt 0.625000 0.750000
vt 0.625000 0.500000
vt 0.375000 1.000000
vt 0.375000 0.750000
vt 0.625000 0.000000
vt 0.375000 0.250000
vt 0.375000 0.000000
vt 0.375000 0.500000
vt 0.125000 0.750000
vt 0.125000 0.500000
vt 0.625000 0.250000
vt 0.875000 0.750000
vt 0.625000 1.000000
s 0
usemtl Material
f 5/1/1 3/2/1 1/3/1
f 3/2/2 8/4/2 4/5/2
f 7/6/3 6/7/3 8/8/3
f 2/9/4 8/10/4 6/11/4
f 1/3/5 4/5/5 2/9/5
f 5/12/6 2/9/6 6/7/6
f 5/1/1 7/13/1 3/2/1
f 3/2/2 7/14/2 8/4/2
f 7/6/3 5/12/3 6/7/3
f 2/9/4 4/5/4 8/10/4
f 1/3/5 3/2/5 4/5/5
f 5/12/6 1/3/6 2/9/6
