{
	"asset":{
		"generator":"Khronos glTF Blender I/O v4.1.63",
		"version":"2.0"
	},
	"scene":0,
	"scenes":[
		{
			"name":"Scene",
			"nodes":[
				8
			]
		}
	],
	"nodes":[
		{
			"name":"\u30dc\u30fc\u30f3"
		},
		{
			"name":"\u30dc\u30fc\u30f3.002",
			"rotation":[
				-0.008809613063931465,
				-4.1437395736920735e-08,
				9.083642726892549e-10,
				0.9999611973762512
			],
			"scale":[
				1,
				0.9999999403953552,
				1
			],
			"translation":[
				8.326672684688674e-17,
				0.9662286639213562,
				4.423544863740858e-17
			]
		},
		{
			"children":[
				1
			],
			"name":"\u30dc\u30fc\u30f3.001",
			"rotation":[
				-0.49881941080093384,
				-0.5011778473854065,
				-0.4988194406032562,
				0.5011778473854065
			],
			"scale":[
				0.9999999403953552,
				0.9999999403953552,
				0.9999999403953552
			]
		},
		{
			"name":"\u30dc\u30fc\u30f3.006",
			"rotation":[
				6.984919309616089e-10,
				-1.0826624929904938e-08,
				2.2286258172243834e-08,
				1
			],
			"translation":[
				-6.686605047434568e-08,
				0.8536008596420288,
				-1.3969838619232178e-09
			]
		},
		{
			"children":[
				3
			],
			"name":"\u30dc\u30fc\u30f3.003",
			"rotation":[
				-0.21083733439445496,
				0.6730858683586121,
				0.6808499097824097,
				0.1973486840724945
			],
			"scale":[
				1.0000001192092896,
				1,
				1
			]
		},
		{
			"name":"\u30dc\u30fc\u30f3.005",
			"rotation":[
				-6.766640581190586e-10,
				-3.4924596548080444e-10,
				5.215588316787034e-08,
				1
			],
			"translation":[
				6.142363417893648e-08,
				0.9176368713378906,
				-1.4551915228366852e-11
			]
		},
		{
			"children":[
				5
			],
			"name":"\u30dc\u30fc\u30f3.004",
			"rotation":[
				-0.6868019104003906,
				0.1848650723695755,
				0.18240030109882355,
				0.6788654327392578
			],
			"scale":[
				1,
				1,
				0.9999999403953552
			]
		},
		{
			"mesh":0,
			"name":"ICO\u7403.003",
			"skin":0
		},
		{
			"children":[
				7,
				0,
				2,
				4,
				6
			],
			"name":"\u30a2\u30fc\u30de\u30c1\u30e5\u30a2"
		}
	],
	"animations":[
		{
			"channels":[
				{
					"sampler":0,
					"target":{
						"node":0,
						"path":"translation"
					}
				},
				{
					"sampler":1,
					"target":{
						"node":0,
						"path":"rotation"
					}
				},
				{
					"sampler":2,
					"target":{
						"node":0,
						"path":"scale"
					}
				},
				{
					"sampler":3,
					"target":{
						"node":2,
						"path":"translation"
					}
				},
				{
					"sampler":4,
					"target":{
						"node":2,
						"path":"rotation"
					}
				},
				{
					"sampler":5,
					"target":{
						"node":2,
						"path":"scale"
					}
				},
				{
					"sampler":6,
					"target":{
						"node":1,
						"path":"translation"
					}
				},
				{
					"sampler":7,
					"target":{
						"node":1,
						"path":"rotation"
					}
				},
				{
					"sampler":8,
					"target":{
						"node":1,
						"path":"scale"
					}
				},
				{
					"sampler":9,
					"target":{
						"node":4,
						"path":"translation"
					}
				},
				{
					"sampler":10,
					"target":{
						"node":4,
						"path":"rotation"
					}
				},
				{
					"sampler":11,
					"target":{
						"node":4,
						"path":"scale"
					}
				},
				{
					"sampler":12,
					"target":{
						"node":3,
						"path":"translation"
					}
				},
				{
					"sampler":13,
					"target":{
						"node":3,
						"path":"rotation"
					}
				},
				{
					"sampler":14,
					"target":{
						"node":3,
						"path":"scale"
					}
				},
				{
					"sampler":15,
					"target":{
						"node":6,
						"path":"translation"
					}
				},
				{
					"sampler":16,
					"target":{
						"node":6,
						"path":"rotation"
					}
				},
				{
					"sampler":17,
					"target":{
						"node":6,
						"path":"scale"
					}
				},
				{
					"sampler":18,
					"target":{
						"node":5,
						"path":"translation"
					}
				},
				{
					"sampler":19,
					"target":{
						"node":5,
						"path":"rotation"
					}
				},
				{
					"sampler":20,
					"target":{
						"node":5,
						"path":"scale"
					}
				}
			],
			"name":"\u30a2\u30fc\u30de\u30c1\u30e5\u30a2Action.001",
			"samplers":[
				{
					"input":7,
					"interpolation":"STEP",
					"output":8
				},
				{
					"input":7,
					"interpolation":"STEP",
					"output":9
				},
				{
					"input":7,
					"interpolation":"STEP",
					"output":10
				},
				{
					"input":11,
					"interpolation":"LINEAR",
					"output":12
				},
				{
					"input":7,
					"interpolation":"LINEAR",
					"output":13
				},
				{
					"input":11,
					"interpolation":"LINEAR",
					"output":14
				},
				{
					"input":7,
					"interpolation":"LINEAR",
					"output":15
				},
				{
					"input":7,
					"interpolation":"LINEAR",
					"output":16
				},
				{
					"input":11,
					"interpolation":"LINEAR",
					"output":17
				},
				{
					"input":11,
					"interpolation":"LINEAR",
					"output":18
				},
				{
					"input":7,
					"interpolation":"LINEAR",
					"output":19
				},
				{
					"input":11,
					"interpolation":"LINEAR",
					"output":20
				},
				{
					"input":7,
					"interpolation":"LINEAR",
					"output":21
				},
				{
					"input":7,
					"interpolation":"LINEAR",
					"output":22
				},
				{
					"input":11,
					"interpolation":"LINEAR",
					"output":23
				},
				{
					"input":11,
					"interpolation":"LINEAR",
					"output":24
				},
				{
					"input":7,
					"interpolation":"LINEAR",
					"output":25
				},
				{
					"input":11,
					"interpolation":"LINEAR",
					"output":26
				},
				{
					"input":7,
					"interpolation":"LINEAR",
					"output":27
				},
				{
					"input":7,
					"interpolation":"LINEAR",
					"output":28
				},
				{
					"input":11,
					"interpolation":"LINEAR",
					"output":29
				}
			]
		}
	],
	"materials":[
		{
			"doubleSided":true,
			"name":"\u30de\u30c6\u30ea\u30a2\u30eb",
			"pbrMetallicRoughness":{
				"baseColorTexture":{
					"index":0
				},
				"metallicFactor":0,
				"roughnessFactor":0.5
			}
		}
	],
	"meshes":[
		{
			"name":"ICO\u7403.002",
			"primitives":[
				{
					"attributes":{
						"POSITION":0,
						"NORMAL":1,
						"TEXCOORD_0":2,
						"JOINTS_0":3,
						"WEIGHTS_0":4
					},
					"indices":5,
					"material":0
				}
			]
		}
	],
	"textures":[
		{
			"sampler":0,
			"source":0
		}
	],
	"images":[
		{
			"mimeType":"image/png",
			"name":"Missile_Effect",
			"uri":"Missile_Effect.png"
		}
	],
	"skins":[
		{
			"inverseBindMatrices":6,
			"joints":[
				0,
				2,
				1,
				4,
				3,
				6,
				5
			],
			"name":"\u30a2\u30fc\u30de\u30c1\u30e5\u30a2"
		}
	],
	"accessors":[
		{
			"bufferView":0,
			"componentType":5126,
			"count":132,
			"max":[
				2.435274839401245,
				0.3120958209037781,
				2.2846243381500244
			],
			"min":[
				-2.1251401901245117,
				0.181818425655365,
				-2.196437358856201
			],
			"type":"VEC3"
		},
		{
			"bufferView":1,
			"componentType":5126,
			"count":132,
			"type":"VEC3"
		},
		{
			"bufferView":2,
			"componentType":5126,
			"count":132,
			"type":"VEC2"
		},
		{
			"bufferView":3,
			"componentType":5121,
			"count":132,
			"type":"VEC4"
		},
		{
			"bufferView":4,
			"componentType":5126,
			"count":132,
			"type":"VEC4"
		},
		{
			"bufferView":5,
			"componentType":5123,
			"count":198,
			"type":"SCALAR"
		},
		{
			"bufferView":6,
			"componentType":5126,
			"count":7,
			"type":"MAT4"
		},
		{
			"bufferView":7,
			"componentType":5126,
			"count":2,
			"max":[
				0.4166666666666667
			],
			"min":[
				0.041666666666666664
			],
			"type":"SCALAR"
		},
		{
			"bufferView":8,
			"componentType":5126,
			"count":2,
			"type":"VEC3"
		},
		{
			"bufferView":9,
			"componentType":5126,
			"count":2,
			"type":"VEC4"
		},
		{
			"bufferView":10,
			"componentType":5126,
			"count":2,
			"type":"VEC3"
		},
		{
			"bufferView":11,
			"componentType":5126,
			"count":10,
			"max":[
				0.4166666666666667
			],
			"min":[
				0.041666666666666664
			],
			"type":"SCALAR"
		},
		{
			"bufferView":12,
			"componentType":5126,
			"count":10,
			"type":"VEC3"
		},
		{
			"bufferView":13,
			"componentType":5126,
			"count":2,
			"type":"VEC4"
		},
		{
			"bufferView":14,
			"componentType":5126,
			"count":10,
			"type":"VEC3"
		},
		{
			"bufferView":15,
			"componentType":5126,
			"count":2,
			"type":"VEC3"
		},
		{
			"bufferView":16,
			"componentType":5126,
			"count":2,
			"type":"VEC4"
		},
		{
			"bufferView":17,
			"componentType":5126,
			"count":10,
			"type":"VEC3"
		},
		{
			"bufferView":18,
			"componentType":5126,
			"count":10,
			"type":"VEC3"
		},
		{
			"bufferView":19,
			"componentType":5126,
			"count":2,
			"type":"VEC4"
		},
		{
			"bufferView":20,
			"componentType":5126,
			"count":10,
			"type":"VEC3"
		},
		{
			"bufferView":21,
			"componentType":5126,
			"count":2,
			"type":"VEC3"
		},
		{
			"bufferView":22,
			"componentType":5126,
			"count":2,
			"type":"VEC4"
		},
		{
			"bufferView":23,
			"componentType":5126,
			"count":10,
			"type":"VEC3"
		},
		{
			"bufferView":24,
			"componentType":5126,
			"count":10,
			"type":"VEC3"
		},
		{
			"bufferView":25,
			"componentType":5126,
			"count":2,
			"type":"VEC4"
		},
		{
			"bufferView":26,
			"componentType":5126,
			"count":10,
			"type":"VEC3"
		},
		{
			"bufferView":27,
			"componentType":5126,
			"count":2,
			"type":"VEC3"
		},
		{
			"bufferView":28,
			"componentType":5126,
			"count":2,
			"type":"VEC4"
		},
		{
			"bufferView":29,
			"componentType":5126,
			"count":10,
			"type":"VEC3"
		}
	],
	"bufferViews":[
		{
			"buffer":0,
			"byteLength":1584,
			"byteOffset":0,
			"target":34962
		},
		{
			"buffer":0,
			"byteLength":1584,
			"byteOffset":1584,
			"target":34962
		},
		{
			"buffer":0,
			"byteLength":1056,
			"byteOffset":3168,
			"target":34962
		},
		{
			"buffer":0,
			"byteLength":528,
			"byteOffset":4224,
			"target":34962
		},
		{
			"buffer":0,
			"byteLength":2112,
			"byteOffset":4752,
			"target":34962
		},
		{
			"buffer":0,
			"byteLength":396,
			"byteOffset":6864,
			"target":34963
		},
		{
			"buffer":0,
			"byteLength":448,
			"byteOffset":7260
		},
		{
			"buffer":0,
			"byteLength":8,
			"byteOffset":7708
		},
		{
			"buffer":0,
			"byteLength":24,
			"byteOffset":7716
		},
		{
			"buffer":0,
			"byteLength":32,
			"byteOffset":7740
		},
		{
			"buffer":0,
			"byteLength":24,
			"byteOffset":7772
		},
		{
			"buffer":0,
			"byteLength":40,
			"byteOffset":7796
		},
		{
			"buffer":0,
			"byteLength":120,
			"byteOffset":7836
		},
		{
			"buffer":0,
			"byteLength":32,
			"byteOffset":7956
		},
		{
			"buffer":0,
			"byteLength":120,
			"byteOffset":7988
		},
		{
			"buffer":0,
			"byteLength":24,
			"byteOffset":8108
		},
		{
			"buffer":0,
			"byteLength":32,
			"byteOffset":8132
		},
		{
			"buffer":0,
			"byteLength":120,
			"byteOffset":8164
		},
		{
			"buffer":0,
			"byteLength":120,
			"byteOffset":8284
		},
		{
			"buffer":0,
			"byteLength":32,
			"byteOffset":8404
		},
		{
			"buffer":0,
			"byteLength":120,
			"byteOffset":8436
		},
		{
			"buffer":0,
			"byteLength":24,
			"byteOffset":8556
		},
		{
			"buffer":0,
			"byteLength":32,
			"byteOffset":8580
		},
		{
			"buffer":0,
			"byteLength":120,
			"byteOffset":8612
		},
		{
			"buffer":0,
			"byteLength":120,
			"byteOffset":8732
		},
		{
			"buffer":0,
			"byteLength":32,
			"byteOffset":8852
		},
		{
			"buffer":0,
			"byteLength":120,
			"byteOffset":8884
		},
		{
			"buffer":0,
			"byteLength":24,
			"byteOffset":9004
		},
		{
			"buffer":0,
			"byteLength":32,
			"byteOffset":9028
		},
		{
			"buffer":0,
			"byteLength":120,
			"byteOffset":9060
		}
	],
	"samplers":[
		{
			"magFilter":9729,
			"minFilter":9987
		}
	],
	"buffers":[
		{
			"byteLength":9180,
			"uri":"Missile_Effect.bin"
		}
	]
}
