# Blender 4.1.1
# www.blender.org
mtllib TitlePlayer.mtl
o 立方体
v 0.137480 -0.137372 1.031440
v 0.082660 -0.016901 1.031440
v 0.137480 -0.137372 0.976033
v 0.082660 -0.016901 0.976033
v 0.257951 -0.082552 1.031440
v 0.203131 0.037919 1.031440
v 0.257951 -0.082552 0.976033
v 0.203131 0.037919 0.976033
v 1.000112 0.508890 0.344437
v 0.324133 0.641553 0.344437
v 1.000112 0.508890 -0.344437
v 0.324133 0.641553 -0.344437
v 1.187930 1.465917 0.344437
v 0.511952 1.598579 0.344437
v 1.187930 1.465917 -0.344437
v 0.511952 1.598579 -0.344437
v 0.533738 1.295001 -1.000000
v 1.362103 -0.525387 -1.000000
v 0.533738 1.295001 1.000000
v -1.286650 0.466635 -1.000000
v 1.362103 -0.525387 1.000000
v -0.458285 -1.353752 1.000000
v -0.458285 -1.353752 -1.000000
v -1.286650 0.466636 1.000000
v -0.000014 -2.441771 0.392485
v -0.068715 -2.341052 0.506677
v 0.682603 -2.139904 0.536915
v -0.265078 -1.272739 -0.798085
v 0.613902 -2.039186 0.651107
v 0.417540 -0.970873 -0.653655
v -0.442297 -1.012928 -0.503518
v 0.240321 -0.711061 -0.359088
v 0.889516 -2.180114 0.043632
v 0.826084 -2.102631 0.177336
v 0.579163 -0.811337 -0.896834
v 1.578797 -1.907637 0.212740
v 1.515365 -1.830153 0.346444
v 1.268444 -0.538860 -0.727726
v 0.415534 -0.611464 -0.551936
v 1.104815 -0.338986 -0.382828
v -0.764333 -1.415671 0.344437
v -1.388473 -1.124133 0.344437
v -0.351583 -0.532036 0.344437
v -0.764333 -1.415671 -0.344437
v -0.975723 -0.240497 0.344437
v -0.351583 -0.532036 -0.344437
v -1.388473 -1.124133 -0.344437
v -0.975723 -0.240498 -0.344437
v 0.223942 0.321066 1.031440
v 0.030306 0.746594 1.031440
v 0.223942 0.321066 0.976033
v 0.030306 0.746594 0.976033
v 0.344413 0.375886 1.031440
v 0.150777 0.801414 1.031440
v 0.344413 0.375886 0.976033
v 0.150777 0.801414 0.976033
v -0.469508 0.014036 1.031440
v -0.686266 0.425587 1.031440
v -0.469508 0.014036 0.976033
v -0.686266 0.425587 0.976033
v -0.352400 0.075715 1.031440
v -0.569158 0.487266 1.031440
v -0.352400 0.075715 0.976033
v -0.569158 0.487266 0.976033
vn -0.9102 -0.4142 -0.0000
vn -0.0000 -0.0000 -1.0000
vn 0.9102 0.4142 -0.0000
vn -0.0000 -0.0000 1.0000
vn 0.4142 -0.9102 -0.0000
vn -0.4142 0.9102 -0.0000
vn -0.1926 -0.9813 -0.0000
vn 0.1926 0.9813 -0.0000
vn 0.9813 -0.1926 -0.0000
vn -0.9813 0.1926 -0.0000
vn 0.1569 -0.6919 0.7047
vn -0.8979 -0.3971 -0.1900
vn 0.4113 -0.6029 -0.6836
vn -0.1569 0.6919 -0.7047
vn 0.8979 0.3971 0.1900
vn -0.3821 0.4890 0.7842
vn 0.1837 -0.8102 0.5567
vn -0.9067 -0.3584 -0.2224
vn 0.3797 -0.4638 -0.8004
vn -0.1837 0.8102 -0.5567
vn 0.9067 0.3584 0.2224
vn -0.3468 0.3333 0.8767
vn -0.4232 -0.9060 -0.0000
vn 0.9060 -0.4232 -0.0000
vn 0.4232 0.9060 -0.0000
vn -0.9060 0.4232 -0.0000
vn -0.8848 -0.4660 -0.0000
vn 0.8848 0.4660 -0.0000
vn 0.4660 -0.8848 -0.0000
vn -0.4660 0.8848 -0.0000
vt 0.769721 0.512476
vt 0.859186 0.512476
vt 0.859186 0.601941
vt 0.769721 0.601941
vt 0.859186 0.691406
vt 0.769721 0.691406
vt 0.859186 0.780871
vt 0.769721 0.780871
vt 0.859186 0.870336
vt 0.769721 0.870336
vt 0.680256 0.691406
vt 0.680256 0.780871
vt 0.948650 0.691406
vt 0.948650 0.780871
vt 0.000000 0.000000
s 0
usemtl Material.001
f 1/1/1 2/2/1 4/3/1 3/4/1
f 3/4/2 4/3/2 8/5/2 7/6/2
f 7/6/3 8/5/3 6/7/3 5/8/3
f 5/8/4 6/7/4 2/9/4 1/10/4
f 3/11/5 7/6/5 5/8/5 1/12/5
f 8/5/6 4/13/6 2/14/6 6/7/6
f 10/15/7 11/15/7 9/15/7
f 12/15/2 15/15/2 11/15/2
f 16/15/8 13/15/8 15/15/8
f 14/15/4 9/15/4 13/15/4
f 15/15/9 9/15/9 11/15/9
f 12/15/10 14/15/10 16/15/10
f 10/15/7 12/15/7 11/15/7
f 12/15/2 16/15/2 15/15/2
f 16/15/8 14/15/8 13/15/8
f 14/15/4 10/15/4 9/15/4
f 15/15/9 13/15/9 9/15/9
f 12/15/10 10/15/10 14/15/10
f 20/15/2 17/15/2 18/15/2
f 17/15/3 21/15/3 18/15/3
f 17/15/3 19/15/3 21/15/3
f 20/15/6 19/15/6 17/15/6
f 18/15/5 21/15/5 22/15/5
f 19/15/4 22/15/4 21/15/4
f 19/15/4 24/15/4 22/15/4
f 18/15/5 22/15/5 23/15/5
f 24/15/1 23/15/1 22/15/1
f 24/15/1 20/15/1 23/15/1
f 20/15/6 24/15/6 19/15/6
f 20/15/2 18/15/2 23/15/2
f 29/15/11 26/15/11 25/15/11
f 26/15/12 28/15/12 25/15/12
f 30/15/13 27/15/13 25/15/13
f 29/15/11 25/15/11 27/15/11
f 30/15/13 25/15/13 28/15/13
f 31/15/14 32/15/14 30/15/14
f 31/15/14 30/15/14 28/15/14
f 30/15/15 32/15/15 29/15/15
f 30/15/15 29/15/15 27/15/15
f 31/15/16 29/15/16 32/15/16
f 26/15/12 31/15/12 28/15/12
f 31/15/16 26/15/16 29/15/16
f 37/15/17 34/15/17 33/15/17
f 34/15/18 35/15/18 33/15/18
f 38/15/19 33/15/19 35/15/19
f 38/15/19 36/15/19 33/15/19
f 37/15/17 33/15/17 36/15/17
f 39/15/20 40/15/20 38/15/20
f 39/15/20 38/15/20 35/15/20
f 38/15/21 37/15/21 36/15/21
f 38/15/21 40/15/21 37/15/21
f 39/15/22 37/15/22 40/15/22
f 34/15/18 39/15/18 35/15/18
f 39/15/22 34/15/22 37/15/22
f 45/15/4 42/15/4 41/15/4
f 42/15/23 44/15/23 41/15/23
f 46/15/24 43/15/24 41/15/24
f 45/15/4 41/15/4 43/15/4
f 46/15/24 41/15/24 44/15/24
f 47/15/2 48/15/2 46/15/2
f 47/15/2 46/15/2 44/15/2
f 48/15/25 43/15/25 46/15/25
f 47/15/26 45/15/26 48/15/26
f 48/15/25 45/15/25 43/15/25
f 42/15/23 47/15/23 44/15/23
f 47/15/26 42/15/26 45/15/26
f 49/1/1 50/2/1 52/3/1 51/4/1
f 51/4/2 52/3/2 56/5/2 55/6/2
f 55/6/3 56/5/3 54/7/3 53/8/3
f 53/8/4 54/7/4 50/9/4 49/10/4
f 51/11/5 55/6/5 53/8/5 49/12/5
f 56/5/6 52/13/6 50/14/6 54/7/6
f 57/1/27 58/2/27 60/3/27 59/4/27
f 59/4/2 60/3/2 64/5/2 63/6/2
f 63/6/28 64/5/28 62/7/28 61/8/28
f 61/8/4 62/7/4 58/9/4 57/10/4
f 59/11/29 63/6/29 61/8/29 57/12/29
f 64/5/30 60/13/30 58/14/30 62/7/30
