# Blender 4.2.3 LTS
# www.blender.org
mtllib Right_Hand.mtl
o right_hand
v -2.348983 -0.074374 4.054996
v -2.084543 -1.006790 3.808680
v -2.749625 0.557694 -0.279919
v -2.491801 -0.467050 -0.147838
v 1.684605 -0.088678 4.045804
v 1.411106 -1.018648 3.800133
v 2.267946 0.242138 -0.279919
v 1.996845 -0.711308 -0.147839
v -0.038560 -0.782011 3.868059
v -0.013709 0.691617 -0.279919
v 0.001902 -0.293207 -0.147839
v -0.069533 0.178566 4.121815
v -1.450896 -0.239748 -0.147838
v -1.013449 0.240179 4.138092
v -1.027334 -0.726561 3.882708
v -1.405174 0.751395 -0.279919
v 0.698196 -0.904955 3.835581
v 1.136171 0.535861 -0.279919
v 0.988555 -0.417585 -0.147839
v 0.971694 0.025016 4.081252
v 1.706466 -0.574818 1.791226
v -2.917091 0.601911 0.970231
v 1.979963 0.355153 1.813666
v -2.728365 -0.536250 0.784250
v 0.001600 -0.255647 1.875543
v -0.059312 0.704929 1.657506
v -1.436195 0.766543 1.798132
v -1.027334 -0.200197 1.890191
v 0.992675 -0.378591 1.843064
v 1.095181 0.551379 1.750200
v 1.825529 0.133089 3.049432
v -2.504230 -0.989611 3.139466
v 1.552031 -0.796881 2.803761
v -2.964273 -0.285589 3.076342
v 0.001600 -0.518829 2.871800
v -0.072510 0.441748 3.125556
v -1.253273 0.503361 3.141833
v -1.027334 -0.463379 2.886449
v 0.854800 -0.641773 2.839322
v 1.096409 0.288198 3.084994
v 2.270333 -1.116532 -2.686853
v 2.500539 -0.306912 -3.226779
v 1.644691 -0.147088 -3.352027
v -1.331703 -0.075861 -3.793746
v -0.301367 -0.090169 -3.793746
v -0.313055 -0.931800 -3.253819
v -1.343390 -0.917492 -3.253819
v 1.414485 -0.956708 -2.812101
v -2.879166 -0.316871 -3.398056
v -2.656584 -1.128620 -2.858129
v -1.653834 -0.903524 -2.933089
v 1.019234 -1.124631 -3.292553
v -0.004532 -1.007590 -3.292553
v 0.091073 -0.171324 -3.832479
v -1.876415 -0.091775 -3.473015
v 1.114839 -0.288366 -3.832479
v 2.320287 -1.799682 -3.689938
v 2.550493 -0.990063 -4.229865
v 1.747024 -0.847179 -4.358183
v -1.414172 -0.966604 -5.184011
v -0.383836 -0.980912 -5.184011
v -0.395523 -1.822544 -4.644085
v -1.425859 -1.808236 -4.644085
v 1.516817 -1.656799 -3.818257
v -2.802507 -1.149961 -4.682162
v -2.579926 -1.961710 -4.142236
v -1.576644 -1.741921 -4.225392
v 0.968646 -1.987872 -4.638540
v -0.055121 -1.870831 -4.638540
v 0.040485 -1.034566 -5.178468
v -1.799226 -0.930172 -4.765318
v 1.064250 -1.151607 -5.178468
v -3.703779 -0.525411 2.338472
v -3.316989 0.123245 1.308456
v -2.959000 -0.786090 1.122474
v -3.018385 -1.229432 2.152490
v -4.655101 -1.036922 0.768879
v -3.901320 -0.267593 0.634526
v -3.215926 -0.971615 0.448544
v -3.969707 -1.740943 0.582897
v -1.582067 -0.457491 -1.629194
v -1.828534 0.441367 -1.991558
v -2.906269 0.181967 -1.901975
v -2.659802 -0.716891 -1.539610
v -1.325620 -0.381275 -1.836255
v -0.205870 -0.396825 -1.836255
v -0.192928 0.535122 -2.198621
v -1.312678 0.550671 -2.198620
v 1.170757 0.371737 -2.171356
v 0.135324 0.490112 -2.171356
v 0.029460 -0.435893 -1.808992
v 1.064892 -0.554268 -1.808992
v 2.122308 -0.659492 -1.253919
v 2.377217 0.237008 -1.616285
v 1.462307 0.449080 -1.735219
v 1.207397 -0.447420 -1.372854
v -4.534188 -0.451470 -1.001712
v -3.996551 -0.080556 -0.424441
v -3.311157 -0.784577 -0.610422
v -3.848794 -1.155491 -1.187693
vn 0.2167 0.9762 -0.0031
vn 0.9979 -0.0349 -0.0542
vn 0.9521 -0.2981 0.0683
vn 0.2090 -0.9776 -0.0245
vn -0.9604 -0.1180 -0.2525
vn -0.0000 -0.2554 0.9668
vn -0.1250 -0.9920 0.0197
vn -0.0130 -0.9352 0.3539
vn 0.0440 0.9990 -0.0066
vn -0.1424 0.9883 -0.0540
vn -0.9946 0.1028 -0.0168
vn -0.0535 -0.9984 0.0185
vn -0.2796 -0.9598 0.0257
vn 0.0070 -0.2573 0.9663
vn 0.1055 0.9229 -0.3703
vn 0.1342 0.9909 -0.0036
vn 0.1159 0.9775 0.1763
vn -0.2224 -0.9447 -0.2411
vn -0.0557 -0.9653 -0.2550
vn -0.4036 0.8464 0.3476
vn 0.0627 0.9810 0.1836
vn -0.1474 -0.9510 -0.2716
vn -0.6558 0.0146 -0.7548
vn 0.3363 -0.9105 -0.2405
vn 0.9550 -0.2493 0.1606
vn 0.1996 0.9614 0.1894
vn 0.2129 0.9378 0.2744
vn 0.2880 -0.9259 -0.2446
vn -0.7597 -0.4548 0.4648
vn -0.1700 -0.9458 -0.2766
vn 0.0539 0.9686 0.2429
vn -0.4199 0.9050 0.0687
vn -0.0579 -0.9646 -0.2572
vn -0.1645 -0.9576 -0.2364
vn 0.1346 0.9581 0.2527
vn 0.9505 -0.3004 0.0791
vn 0.9949 -0.0975 0.0251
vn 0.9723 -0.1679 0.1628
vn -0.9998 0.0176 0.0059
vn 0.9655 -0.2153 0.1466
vn -0.9702 0.1479 -0.1919
vn -0.2154 -0.9366 0.2765
vn 0.2527 0.9167 -0.3095
vn 0.0129 0.9306 -0.3657
vn 0.0956 0.8363 -0.5399
vn -0.9696 0.1434 -0.1984
vn 0.9690 0.2210 -0.1108
vn -0.1060 -0.9270 0.3597
vn 0.9939 -0.1097 0.0101
vn -0.2302 0.9219 -0.3116
vn 0.2467 -0.9210 0.3015
vn -0.9727 -0.2222 0.0670
vn 0.0324 -0.5609 -0.8273
vn -0.0075 -0.5399 -0.8417
vn 0.0497 -0.5437 -0.8378
vn -0.0613 -0.5364 -0.8417
vn 0.2302 0.8096 -0.5399
vn -0.9736 -0.2135 0.0804
vn 0.0117 0.8416 -0.5399
vn 0.2226 -0.8117 0.5399
vn 0.9987 -0.0368 -0.0357
vn -0.0956 -0.8363 0.5399
vn -0.0117 -0.8416 0.5399
vn -0.9949 0.0975 -0.0251
vn -0.9987 0.0368 0.0357
vn -0.2226 0.8117 -0.5399
vn -0.2302 -0.8096 0.5399
vn 0.9736 0.2135 -0.0804
vn -0.6854 0.7040 0.1860
vn -0.5450 0.7865 0.2906
vn 0.5625 -0.8003 -0.2076
vn -0.5712 -0.6782 0.4624
vn -0.5300 -0.6575 0.5355
vn 0.5808 0.3763 -0.7218
vn 0.8360 -0.5199 -0.1756
vn -0.9670 -0.2034 0.1532
vn 0.2117 -0.9695 0.1238
vn -0.2448 0.9495 -0.1963
vn 0.9711 -0.0750 -0.2266
vn 0.0427 0.9939 -0.1019
vn -0.9972 -0.0145 -0.0728
vn -0.0139 -0.9979 0.0629
vn 0.9956 0.0033 -0.0933
vn 0.9884 -0.1487 0.0310
vn -0.1133 -0.9906 0.0763
vn 0.1336 0.9865 -0.0946
vn -0.9943 0.1037 -0.0254
vn 0.2512 0.9679 -0.0014
vn -0.2166 -0.9737 -0.0702
vn -0.9632 0.2023 -0.1770
vn 0.9668 -0.2426 0.0800
vn 0.3871 0.5686 -0.7259
vn -0.7253 -0.6373 -0.2603
vn 0.7228 0.6887 0.0566
vn 0.6854 -0.7040 -0.1860
vn 0.2512 0.9678 -0.0177
vn 0.9971 -0.0501 -0.0565
vn 0.2133 -0.9768 -0.0184
vn -0.9591 -0.2567 -0.1194
vn -0.1225 -0.9923 0.0184
vn 0.0429 0.9991 -0.0059
vn -0.1056 0.9944 -0.0088
vn -0.9941 0.1073 -0.0162
vn -0.0368 -0.9990 0.0270
vn -0.2637 -0.9644 0.0194
vn 0.1322 0.9912 -0.0049
vn 0.1344 0.9722 0.1916
vn -0.2733 -0.9200 -0.2809
vn -0.2268 0.9495 0.2168
vn 0.0537 0.9828 0.1767
vn -0.1273 -0.9590 -0.2533
vn -0.7532 -0.1663 -0.6365
vn 0.2966 -0.9322 -0.2077
vn 0.9482 -0.2824 0.1457
vn 0.2132 0.9566 0.1985
vn 0.1645 0.9576 0.2364
vn 0.2640 -0.9457 -0.1898
vn -0.7532 -0.3592 0.5511
vn -0.1474 -0.9548 -0.2582
vn 0.0674 0.9647 0.2546
vn -0.2363 0.9239 0.3010
vn -0.2220 -0.9335 -0.2815
vn 0.1508 0.9510 0.2701
vn 0.9567 -0.2830 0.0687
vn -0.9999 0.0161 0.0056
vn 0.9726 -0.1728 0.1556
vn -0.9627 0.2000 -0.1823
vn -0.2517 -0.9232 0.2905
vn 0.2171 0.9297 -0.2974
vn 0.9749 0.1887 -0.1182
vn 0.9942 -0.1069 0.0105
vn -0.2468 0.9143 -0.3211
vn 0.2302 -0.9287 0.2906
vn -0.9687 -0.2404 0.0626
vn -0.6223 0.7263 0.2921
vn 0.7381 -0.6342 -0.2304
vn -0.6094 -0.3337 0.7192
vn 0.5942 0.6884 -0.4160
vn -0.9638 -0.2238 0.1449
vn 0.2428 -0.9595 0.1429
vn -0.1411 0.9797 -0.1425
vn 0.9688 0.2181 -0.1178
vn 0.0138 0.9965 -0.0826
vn -0.9979 0.0391 -0.0522
vn -0.0367 -0.9961 0.0808
vn 0.9912 -0.0598 -0.1183
vn 0.9943 -0.0928 0.0533
vn -0.1246 -0.9887 0.0829
vn 0.1132 0.9900 -0.0838
vn -0.9968 -0.0260 -0.0758
vn 0.2240 0.9745 0.0146
vn -0.2796 -0.9598 -0.0266
vn -0.9674 0.1188 -0.2239
vn 0.9608 -0.2598 0.0968
vt 0.875000 0.625000
vt 0.812500 0.750000
vt 0.812500 0.625000
vt 0.375000 0.875000
vt 0.625000 0.875000
vt 0.375000 0.187500
vt 0.625000 0.250000
vt 0.375000 0.250000
vt 0.375000 0.625000
vt 0.312500 0.750000
vt 0.312500 0.625000
vt 0.625000 0.625000
vt 0.375000 0.750000
vt 0.375000 0.437500
vt 0.625000 0.500000
vt 0.375000 0.500000
vt 0.625000 0.312500
vt 0.375000 0.375000
vt 0.375000 0.312500
vt 0.187500 0.625000
vt 0.250000 0.750000
vt 0.187500 0.750000
vt 0.750000 0.625000
vt 0.687500 0.750000
vt 0.687500 0.625000
vt 0.625000 0.750000
vt 0.625000 0.375000
vt 0.250000 0.625000
vt 0.125000 0.625000
vt 0.125000 0.750000
vt 0.750000 0.750000
vt 0.750000 0.562500
vt 0.187500 0.562500
vt 0.125000 0.562500
vt 0.312500 0.562500
vt 0.250000 0.562500
vt 0.687500 0.562500
vt 0.625000 0.562500
vt 0.625000 0.000000
vt 0.375000 0.125000
vt 0.375000 0.000000
vt 0.812500 0.562500
vt 0.812500 0.500000
vt 0.875000 0.562500
vt 0.312500 0.500000
vt 0.375000 0.562500
vt 0.250000 0.500000
vt 0.187500 0.500000
vt 0.687500 0.500000
vt 0.125000 0.500000
vt 0.750000 0.500000
vt 0.625000 0.187500
vt 0.375000 0.937500
vt 0.625000 0.937500
vt 0.375000 0.812500
vt 0.625000 0.812500
vt 0.875000 0.750000
vt 0.625000 0.750000
vt 0.625000 1.000000
vt 0.375000 1.000000
vt 0.687500 0.750000
vt 0.625000 0.437500
vt 0.625000 0.125000
vt 0.875000 0.500000
s 0
usemtl right_material
f 23/1/1 18/2/1 30/3/1
f 86/4/2 45/5/2 87/5/2
f 33/6/3 5/7/3 6/8/3
f 24/9/4 13/10/4 28/11/4
f 22/12/5 4/13/5 24/9/5
f 15/14/6 1/15/6 2/16/6
f 20/17/6 9/18/6 17/19/6
f 29/20/7 11/21/7 19/22/7
f 86/21/8 47/10/8 46/21/8
f 26/23/9 16/24/9 27/25/9
f 22/12/10 16/24/10 3/26/10
f 91/4/11 54/5/11 53/4/11
f 12/27/6 15/14/6 9/18/6
f 28/11/12 11/21/12 25/28/12
f 21/29/13 19/22/13 8/30/13
f 5/7/14 17/19/14 6/8/14
f 89/2/15 54/31/15 90/31/15
f 26/23/16 18/2/16 10/31/16
f 36/32/17 30/3/17 26/23/17
f 39/33/18 21/29/18 33/34/18
f 38/35/19 25/28/19 35/36/19
f 37/37/20 22/12/20 34/38/20
f 37/37/21 26/23/21 27/25/21
f 35/36/22 29/20/22 39/33/22
f 24/9/23 74/12/23 22/12/23
f 38/35/24 24/9/24 28/11/24
f 7/39/25 21/40/25 8/41/25
f 40/42/26 23/1/26 30/3/26
f 20/43/27 31/44/27 40/42/27
f 15/45/28 32/46/28 38/35/28
f 2/16/29 34/38/29 32/46/29
f 9/47/30 39/33/30 17/48/30
f 14/49/31 36/32/31 37/37/31
f 1/15/32 37/37/32 34/38/32
f 15/45/33 35/36/33 9/47/33
f 17/48/34 33/34/34 6/50/34
f 12/51/35 40/42/35 36/32/35
f 21/40/36 31/52/36 33/6/36
f 52/53/37 72/54/37 56/54/37
f 41/41/38 58/39/38 42/39/38
f 85/55/39 44/56/39 47/55/39
f 93/41/40 42/39/40 94/39/40
f 96/53/41 43/54/41 48/53/41
f 93/30/42 48/22/42 41/30/42
f 94/57/43 43/2/43 95/2/43
f 87/31/44 44/24/44 88/24/44
f 56/2/45 70/31/45 54/31/45
f 48/53/46 59/54/46 64/53/46
f 81/55/47 55/56/47 82/56/47
f 92/22/48 53/21/48 52/22/48
f 92/53/49 56/54/49 89/54/49
f 83/26/50 55/24/50 49/26/50
f 84/13/51 51/10/51 81/10/51
f 84/13/52 49/26/52 50/13/52
f 64/53/53 58/58/53 57/59/53
f 63/55/54 61/5/54 62/4/54
f 65/26/55 67/55/55 66/13/55
f 69/4/56 72/54/56 68/53/56
f 42/57/57 59/2/57 43/2/57
f 50/13/58 65/26/58 66/13/58
f 45/31/59 60/24/59 44/24/59
f 50/13/60 67/10/60 51/10/60
f 46/4/61 61/5/61 45/5/61
f 52/22/62 69/21/62 68/22/62
f 46/21/63 63/10/63 62/21/63
f 53/4/64 70/5/64 69/4/64
f 47/55/65 60/56/65 63/55/65
f 49/26/66 71/24/66 65/26/66
f 41/30/67 64/22/67 57/30/67
f 51/55/68 71/56/68 55/56/68
f 73/38/69 78/12/69 77/38/69
f 34/38/70 74/12/70 73/38/70
f 32/46/71 75/9/71 24/9/71
f 32/46/72 73/38/72 76/46/72
f 78/12/69 97/38/69 77/38/69
f 76/46/73 77/38/73 80/46/73
f 75/9/74 78/12/74 74/12/74
f 76/46/75 79/9/75 75/9/75
f 4/13/76 83/26/76 84/13/76
f 4/13/77 81/10/77 13/10/77
f 3/26/78 82/24/78 83/26/78
f 13/55/79 82/56/79 16/56/79
f 10/31/80 88/24/80 16/24/80
f 13/55/81 88/56/81 85/55/81
f 11/21/82 85/10/82 86/21/82
f 11/4/83 87/5/83 10/5/83
f 19/53/84 89/54/84 18/54/84
f 19/22/85 91/21/85 92/22/85
f 18/2/86 90/31/86 10/31/86
f 11/4/87 90/5/87 91/4/87
f 7/57/88 95/2/88 18/2/88
f 8/30/89 96/22/89 93/30/89
f 19/53/90 95/54/90 96/53/90
f 7/39/91 93/41/91 94/39/91
f 97/38/92 99/9/92 100/46/92
f 77/38/93 100/46/93 80/46/93
f 78/12/94 99/9/94 98/12/94
f 79/9/95 100/46/95 99/9/95
f 23/1/96 7/57/96 18/2/96
f 86/4/97 46/4/97 45/5/97
f 33/6/3 31/52/3 5/7/3
f 24/9/98 4/13/98 13/10/98
f 22/12/99 3/26/99 4/13/99
f 15/14/6 14/60/6 1/15/6
f 20/17/6 12/27/6 9/18/6
f 29/20/100 25/28/100 11/21/100
f 86/21/8 85/10/8 47/10/8
f 26/23/101 10/31/101 16/24/101
f 22/12/102 27/25/102 16/24/102
f 91/4/103 90/5/103 54/5/103
f 12/27/6 14/60/6 15/14/6
f 28/11/104 13/10/104 11/21/104
f 21/29/105 29/20/105 19/22/105
f 5/7/14 20/17/14 17/19/14
f 89/2/15 56/2/15 54/31/15
f 26/23/106 30/3/106 18/2/106
f 36/32/107 40/42/107 30/3/107
f 39/33/108 29/20/108 21/29/108
f 38/35/19 28/11/19 25/28/19
f 37/37/109 27/25/109 22/12/109
f 37/37/110 36/32/110 26/23/110
f 35/36/111 25/28/111 29/20/111
f 24/9/112 75/9/112 74/12/112
f 38/35/113 32/46/113 24/9/113
f 7/39/114 23/61/114 21/40/114
f 40/42/115 31/44/115 23/1/115
f 20/43/116 5/62/116 31/44/116
f 15/45/117 2/16/117 32/46/117
f 2/16/118 1/15/118 34/38/118
f 9/47/119 35/36/119 39/33/119
f 14/49/120 12/51/120 36/32/120
f 1/15/121 14/49/121 37/37/121
f 15/45/19 38/35/19 35/36/19
f 17/48/122 39/33/122 33/34/122
f 12/51/123 20/43/123 40/42/123
f 21/40/124 23/61/124 31/52/124
f 52/53/37 68/53/37 72/54/37
f 41/41/38 57/41/38 58/39/38
f 85/55/125 88/56/125 44/56/125
f 93/41/126 41/41/126 42/39/126
f 96/53/127 95/54/127 43/54/127
f 93/30/128 96/22/128 48/22/128
f 94/57/129 42/57/129 43/2/129
f 87/31/44 45/31/44 44/24/44
f 56/2/45 72/2/45 70/31/45
f 48/53/46 43/54/46 59/54/46
f 81/55/130 51/55/130 55/56/130
f 92/22/48 91/21/48 53/21/48
f 92/53/131 52/53/131 56/54/131
f 83/26/132 82/24/132 55/24/132
f 84/13/133 50/13/133 51/10/133
f 84/13/134 83/26/134 49/26/134
f 64/53/53 59/54/53 58/58/53
f 63/55/54 60/56/54 61/5/54
f 65/26/55 71/56/55 67/55/55
f 69/4/56 70/5/56 72/54/56
f 42/57/57 58/57/57 59/2/57
f 50/13/58 49/26/58 65/26/58
f 45/31/59 61/31/59 60/24/59
f 50/13/60 66/13/60 67/10/60
f 46/4/61 62/4/61 61/5/61
f 52/22/62 53/21/62 69/21/62
f 46/21/63 47/10/63 63/10/63
f 53/4/64 54/5/64 70/5/64
f 47/55/65 44/56/65 60/56/65
f 49/26/66 55/24/66 71/24/66
f 41/30/67 48/22/67 64/22/67
f 51/55/68 67/55/68 71/56/68
f 73/38/69 74/12/69 78/12/69
f 34/38/135 22/12/135 74/12/135
f 32/46/136 76/46/136 75/9/136
f 32/46/137 34/38/137 73/38/137
f 78/12/69 98/12/69 97/38/69
f 76/46/73 73/38/73 77/38/73
f 75/9/138 79/9/138 78/12/138
f 76/46/95 80/46/95 79/9/95
f 4/13/139 3/26/139 83/26/139
f 4/13/140 84/13/140 81/10/140
f 3/26/141 16/24/141 82/24/141
f 13/55/142 81/55/142 82/56/142
f 10/31/143 87/31/143 88/24/143
f 13/55/144 16/56/144 88/56/144
f 11/21/145 13/10/145 85/10/145
f 11/4/146 86/4/146 87/5/146
f 19/53/147 92/53/147 89/54/147
f 19/22/148 11/21/148 91/21/148
f 18/2/149 89/2/149 90/31/149
f 11/4/150 10/5/150 90/5/150
f 7/57/151 94/57/151 95/2/151
f 8/30/152 19/22/152 96/22/152
f 19/53/153 18/54/153 95/54/153
f 7/39/154 8/41/154 93/41/154
f 97/38/92 98/12/92 99/9/92
f 77/38/93 97/38/93 100/46/93
f 78/12/94 79/9/94 99/9/94
f 79/9/95 80/46/95 100/46/95
