# Blender 4.2.3 LTS
# www.blender.org
mtllib gate.mtl
o 立方体.004
v 0.584772 -7.262638 -2.824481
v 4.265430 4.485269 -2.824482
v 0.584772 -7.262638 -1.803272
v 4.265431 4.485269 -1.803272
v -0.584772 -7.262638 -2.824481
v 3.835847 5.573061 -2.824482
v -0.584772 -7.262638 -1.803272
v 3.835847 5.573061 -1.803272
v 0.584772 0.000000 -2.824481
v 0.584772 0.000000 -1.803272
v -0.584772 0.000000 -1.803272
v -0.584772 0.000000 -2.824481
v 1.550060 2.455993 -2.824482
v 1.550060 2.455993 -1.803271
v 0.776628 3.333282 -1.803271
v 0.776628 3.333282 -2.824481
v 0.584772 -3.631319 -1.803272
v -0.584772 -3.631319 -1.803272
v -0.584772 -3.631319 -2.824481
v 0.584772 -3.631319 -2.824481
v 2.576687 3.818362 -2.824482
v 2.576687 3.818362 -1.803272
v 2.147103 4.906154 -1.803272
v 2.147103 4.906154 -2.824482
v 0.584772 -5.446978 -1.803272
v -0.584772 -5.446978 -1.803272
v -0.584772 -5.446978 -2.824481
v 0.584772 -5.446978 -2.824481
v 0.758889 0.869170 -1.803272
v -0.164609 1.586794 -1.803272
v -0.164609 1.586794 -2.824481
v 0.758889 0.869170 -2.824481
v 0.584772 -1.815659 -2.824481
v 0.584772 -1.815659 -1.803272
v -0.584772 -1.815659 -1.803272
v -0.584772 -1.815659 -2.824481
v 0.584772 -7.262638 -0.510605
v 4.265431 4.485269 -0.510605
v 0.584772 -7.262638 0.510605
v 4.265431 4.485269 0.510605
v -0.584772 -7.262638 -0.510605
v 3.835847 5.573061 -0.510605
v -0.584772 -7.262638 0.510605
v 3.835847 5.573061 0.510605
v 0.584772 0.000000 -0.510605
v 0.584772 0.000000 0.510605
v -0.584772 0.000000 0.510605
v -0.584772 0.000000 -0.510605
v 1.550060 2.455993 -0.510605
v 1.550060 2.455993 0.510605
v 0.776628 3.333282 0.510605
v 0.776628 3.333282 -0.510605
v 0.584772 -3.631319 0.510605
v -0.584772 -3.631319 0.510605
v -0.584772 -3.631319 -0.510605
v 0.584772 -3.631319 -0.510605
v 2.576687 3.818362 -0.510605
v 2.576687 3.818362 0.510605
v 2.147103 4.906154 0.510605
v 2.147103 4.906154 -0.510605
v 0.584772 -5.446978 0.510605
v -0.584772 -5.446978 0.510605
v -0.584772 -5.446978 -0.510605
v 0.584772 -5.446978 -0.510605
v 0.758889 0.869170 0.510605
v -0.164609 1.586794 0.510605
v -0.164609 1.586794 -0.510605
v 0.758889 0.869170 -0.510605
v 0.584772 -1.815659 -0.510605
v 0.584772 -1.815659 0.510605
v -0.584772 -1.815659 0.510605
v -0.584772 -1.815659 -0.510605
v 0.584772 -7.262638 1.547038
v 4.265431 4.485269 1.547037
v 0.584772 -7.262638 2.568247
v 4.265431 4.485269 2.568247
v -0.584772 -7.262638 1.547038
v 3.835847 5.573061 1.547037
v -0.584772 -7.262638 2.568247
v 3.835847 5.573061 2.568248
v 0.584772 0.000000 1.547038
v 0.584772 0.000000 2.568247
v -0.584772 0.000000 2.568247
v -0.584772 0.000000 1.547038
v 1.550060 2.455993 1.547037
v 1.550061 2.455993 2.568248
v 0.776628 3.333282 2.568248
v 0.776628 3.333282 1.547037
v 0.584772 -3.631319 2.568247
v -0.584772 -3.631319 2.568247
v -0.584772 -3.631319 1.547038
v 0.584772 -3.631319 1.547038
v 2.576687 3.818362 1.547037
v 2.576687 3.818362 2.568248
v 2.147103 4.906154 2.568248
v 2.147103 4.906154 1.547037
v 0.584772 -5.446978 2.568247
v -0.584772 -5.446978 2.568247
v -0.584772 -5.446978 1.547038
v 0.584772 -5.446978 1.547038
v 0.758890 0.869170 2.568248
v -0.164608 1.586794 2.568248
v -0.164609 1.586794 1.547038
v 0.758890 0.869170 1.547038
v 0.584772 -1.815659 1.547038
v 0.584772 -1.815659 2.568247
v -0.584772 -1.815659 2.568247
v -0.584772 -1.815659 1.547038
v 0.584771 -7.262638 -4.947049
v 4.265430 4.485269 -4.947050
v 0.584771 -7.262638 -3.925839
v 4.265430 4.485269 -3.925840
v -0.584772 -7.262638 -4.947049
v 3.835846 5.573061 -4.947050
v -0.584772 -7.262638 -3.925839
v 3.835847 5.573061 -3.925839
v 0.584771 0.000000 -4.947049
v 0.584771 0.000000 -3.925839
v -0.584772 0.000000 -3.925839
v -0.584772 0.000000 -4.947049
v 1.550060 2.455993 -4.947049
v 1.550060 2.455993 -3.925839
v 0.776628 3.333282 -3.925839
v 0.776628 3.333282 -4.947049
v 0.584771 -3.631319 -3.925839
v -0.584772 -3.631319 -3.925839
v -0.584772 -3.631319 -4.947049
v 0.584771 -3.631319 -4.947049
v 2.576686 3.818362 -4.947049
v 2.576687 3.818362 -3.925839
v 2.147103 4.906154 -3.925839
v 2.147103 4.906154 -4.947049
v 0.584771 -5.446978 -3.925839
v -0.584772 -5.446978 -3.925839
v -0.584772 -5.446978 -4.947049
v 0.584771 -5.446978 -4.947049
v 0.758889 0.869170 -3.925839
v -0.164609 1.586794 -3.925839
v -0.164609 1.586794 -4.947049
v 0.758889 0.869170 -4.947049
v 0.584771 -1.815659 -4.947049
v 0.584771 -1.815659 -3.925839
v -0.584772 -1.815659 -3.925839
v -0.584772 -1.815659 -4.947049
v 0.584772 -7.262638 3.700917
v 4.265431 4.485269 3.700917
v 0.584772 -7.262638 4.722127
v 4.265431 4.485269 4.722126
v -0.584772 -7.262638 3.700917
v 3.835847 5.573061 3.700917
v -0.584771 -7.262638 4.722127
v 3.835847 5.573061 4.722126
v 0.584772 0.000000 3.700917
v 0.584772 0.000000 4.722127
v -0.584771 0.000000 4.722127
v -0.584772 0.000000 3.700917
v 1.550061 2.455993 3.700917
v 1.550061 2.455993 4.722127
v 0.776628 3.333282 4.722127
v 0.776628 3.333282 3.700917
v 0.584772 -3.631319 4.722127
v -0.584771 -3.631319 4.722127
v -0.584772 -3.631319 3.700917
v 0.584772 -3.631319 3.700917
v 2.576687 3.818362 3.700917
v 2.576687 3.818362 4.722127
v 2.147104 4.906154 4.722127
v 2.147103 4.906154 3.700917
v 0.584772 -5.446978 4.722127
v -0.584771 -5.446978 4.722127
v -0.584772 -5.446978 3.700917
v 0.584772 -5.446978 3.700917
v 0.758890 0.869170 4.722127
v -0.164608 1.586794 4.722127
v -0.164608 1.586794 3.700917
v 0.758890 0.869170 3.700917
v 0.584772 -1.815659 3.700917
v 0.584772 -1.815659 4.722127
v -0.584771 -1.815659 4.722127
v -0.584772 -1.815659 3.700917
vn 0.3673 -0.9301 -0.0000
vn -0.0000 -0.0000 1.0000
vn -0.3673 0.9301 -0.0000
vn -0.0000 -0.0000 -1.0000
vn -0.0000 -1.0000 -0.0000
vn 0.9301 0.3673 -0.0000
vn -1.0000 -0.0000 -0.0000
vn 1.0000 -0.0000 -0.0000
vn -0.8803 0.4744 -0.0000
vn 0.8949 -0.4462 -0.0000
vn -0.7540 0.6569 -0.0000
vn 0.7986 -0.6018 -0.0000
vn 0.9805 -0.1964 -0.0000
vn -0.9667 0.2560 -0.0000
vn -0.7539 0.6569 -0.0000
vt 0.216632 0.016770
vt 0.204141 0.116701
vt 0.204141 0.016770
vt 0.216632 0.216632
vt 0.204141 0.216632
vt 0.204141 0.316563
vt 0.216632 0.316563
vt 0.204141 0.416494
vt 0.116701 0.216632
vt 0.016770 0.316563
vt 0.016770 0.216632
vt 0.316563 0.216632
vt 0.166667 0.316563
vt 0.154175 0.416494
vt 0.154175 0.316563
vt 0.166667 0.216632
vt 0.154175 0.216632
vt 0.166667 0.116701
vt 0.154175 0.116701
vt 0.166667 0.016770
vt 0.154175 0.016770
vt 0.179158 0.316563
vt 0.191649 0.416494
vt 0.179158 0.416494
vt 0.191649 0.216632
vt 0.179158 0.216632
vt 0.191649 0.116701
vt 0.179158 0.116701
vt 0.191649 0.016770
vt 0.179158 0.016770
vt 0.141684 0.016770
vt 0.129193 0.116701
vt 0.129193 0.016770
vt 0.141684 0.116701
vt 0.129193 0.216632
vt 0.141684 0.216632
vt 0.129193 0.316563
vt 0.141684 0.316563
vt 0.129193 0.416494
vt 0.191649 0.316563
vt 0.116701 0.416494
vt 0.116701 0.316563
vt 0.116701 0.116701
vt 0.116701 0.016770
vt 0.166667 0.416494
vt 0.141684 0.416494
vt 0.537474 0.016770
vt 0.549965 0.116701
vt 0.537474 0.116701
vt 0.549965 0.216632
vt 0.537474 0.216632
vt 0.537474 0.316563
vt 0.549965 0.316563
vt 0.537474 0.416494
vt 0.450035 0.216632
vt 0.350104 0.316563
vt 0.350104 0.216632
vt 0.649896 0.216632
vt 0.500000 0.316563
vt 0.487509 0.416494
vt 0.487509 0.316563
vt 0.500000 0.216632
vt 0.487509 0.216632
vt 0.500000 0.116701
vt 0.487509 0.116701
vt 0.500000 0.016770
vt 0.487509 0.016770
vt 0.512491 0.316563
vt 0.524983 0.416494
vt 0.512491 0.416494
vt 0.524983 0.216632
vt 0.512491 0.216632
vt 0.524983 0.116701
vt 0.512491 0.116701
vt 0.524983 0.016770
vt 0.512491 0.016770
vt 0.475017 0.016770
vt 0.462526 0.116701
vt 0.462526 0.016770
vt 0.475017 0.116701
vt 0.462526 0.216632
vt 0.475017 0.216632
vt 0.462526 0.316563
vt 0.475017 0.316563
vt 0.462526 0.416494
vt 0.524983 0.316563
vt 0.450035 0.416494
vt 0.450035 0.316563
vt 0.450035 0.116701
vt 0.450035 0.016770
vt 0.500000 0.416494
vt 0.475017 0.416494
vt 0.204141 0.450034
vt 0.216632 0.549965
vt 0.204141 0.549965
vt 0.216632 0.649896
vt 0.204141 0.649896
vt 0.204141 0.749827
vt 0.216632 0.749827
vt 0.204141 0.849758
vt 0.116701 0.649896
vt 0.016770 0.749827
vt 0.016770 0.649896
vt 0.316563 0.649896
vt 0.166667 0.749827
vt 0.154175 0.849758
vt 0.154175 0.749827
vt 0.166667 0.649896
vt 0.154175 0.649896
vt 0.166667 0.549965
vt 0.154175 0.549965
vt 0.166667 0.450034
vt 0.154175 0.450034
vt 0.179158 0.749827
vt 0.191649 0.849758
vt 0.179158 0.849758
vt 0.191649 0.649896
vt 0.179158 0.649896
vt 0.191649 0.549965
vt 0.179158 0.549965
vt 0.191649 0.450034
vt 0.179158 0.450034
vt 0.141684 0.450034
vt 0.129193 0.549965
vt 0.129193 0.450034
vt 0.141684 0.549965
vt 0.129193 0.649896
vt 0.141684 0.649896
vt 0.129193 0.749827
vt 0.141684 0.749827
vt 0.129193 0.849758
vt 0.191649 0.749827
vt 0.116701 0.849758
vt 0.116701 0.749827
vt 0.116701 0.549965
vt 0.116701 0.450034
vt 0.166667 0.849758
vt 0.141684 0.849758
vt 0.537474 0.450034
vt 0.549965 0.549965
vt 0.537474 0.549965
vt 0.549965 0.649896
vt 0.537474 0.649896
vt 0.537474 0.749827
vt 0.549965 0.749827
vt 0.537474 0.849758
vt 0.450035 0.649896
vt 0.350104 0.749827
vt 0.350104 0.649896
vt 0.649896 0.649896
vt 0.500000 0.749827
vt 0.487509 0.849758
vt 0.487509 0.749827
vt 0.500000 0.649896
vt 0.487509 0.649896
vt 0.500000 0.549965
vt 0.487509 0.549965
vt 0.500000 0.450034
vt 0.487509 0.450034
vt 0.512491 0.749827
vt 0.524983 0.849758
vt 0.512491 0.849758
vt 0.524983 0.649896
vt 0.512491 0.649896
vt 0.524983 0.549965
vt 0.512491 0.549965
vt 0.524983 0.450034
vt 0.512491 0.450034
vt 0.475017 0.450034
vt 0.462526 0.549965
vt 0.462526 0.450034
vt 0.475017 0.549965
vt 0.462526 0.649896
vt 0.475017 0.649896
vt 0.462526 0.749827
vt 0.475017 0.749827
vt 0.462526 0.849758
vt 0.524983 0.749827
vt 0.450035 0.849758
vt 0.450035 0.749827
vt 0.450035 0.549965
vt 0.450035 0.450034
vt 0.500000 0.849758
vt 0.475017 0.849758
vt 0.870807 0.016770
vt 0.883299 0.116701
vt 0.870807 0.116701
vt 0.883299 0.216632
vt 0.870807 0.216632
vt 0.883299 0.316563
vt 0.870807 0.316563
vt 0.870807 0.416494
vt 0.783368 0.216632
vt 0.683437 0.316563
vt 0.683437 0.216632
vt 0.983230 0.216632
vt 0.833333 0.316563
vt 0.820842 0.416494
vt 0.820842 0.316563
vt 0.833333 0.216632
vt 0.820842 0.216632
vt 0.833333 0.116701
vt 0.820842 0.116701
vt 0.833333 0.016770
vt 0.820842 0.016770
vt 0.845825 0.316563
vt 0.858316 0.416494
vt 0.845825 0.416494
vt 0.858316 0.216632
vt 0.845825 0.216632
vt 0.858316 0.116701
vt 0.845825 0.116701
vt 0.845825 0.016770
vt 0.808351 0.016770
vt 0.795859 0.116701
vt 0.795859 0.016770
vt 0.808351 0.116701
vt 0.795859 0.216632
vt 0.808351 0.216632
vt 0.795859 0.316563
vt 0.808351 0.316563
vt 0.795859 0.416494
vt 0.858316 0.316563
vt 0.858316 0.016770
vt 0.783368 0.416494
vt 0.783368 0.316563
vt 0.783368 0.116701
vt 0.783368 0.016770
vt 0.833333 0.416494
vt 0.808351 0.416494
vt 0.216632 0.116701
vt 0.216632 0.416494
vt 0.316563 0.316563
vt 0.549965 0.016770
vt 0.549965 0.416494
vt 0.649896 0.316563
vt 0.216632 0.450034
vt 0.216632 0.849758
vt 0.316563 0.749827
vt 0.549965 0.450034
vt 0.549965 0.849758
vt 0.649896 0.749827
vt 0.883299 0.016770
vt 0.883299 0.416494
vt 0.983230 0.316563
s 0
usemtl マテリアル.001
f 2/1/1 22/2/1 21/3/1
f 22/2/2 8/4/2 23/5/2
f 8/4/3 24/6/3 23/5/3
f 6/7/4 21/8/4 24/6/4
f 7/9/5 1/10/5 3/11/5
f 4/12/6 6/7/6 8/4/6
f 12/13/4 33/14/4 36/15/4
f 11/16/7 36/15/7 35/17/7
f 10/18/2 35/17/2 34/19/2
f 9/20/8 34/19/8 33/21/8
f 31/22/4 13/23/4 32/24/4
f 15/25/9 31/22/9 30/26/9
f 14/27/2 30/26/2 29/28/2
f 13/29/10 29/28/10 32/30/10
f 20/31/8 25/32/8 28/33/8
f 17/34/2 26/35/2 25/32/2
f 18/36/7 27/37/7 26/35/7
f 19/38/4 28/39/4 27/37/4
f 16/40/4 21/8/4 13/23/4
f 15/25/11 24/6/11 16/40/11
f 22/2/2 15/25/2 14/27/2
f 21/3/12 14/27/12 13/29/12
f 27/37/4 1/41/4 5/42/4
f 26/35/7 5/42/7 7/9/7
f 25/32/2 7/9/2 3/43/2
f 28/33/8 3/43/8 1/44/8
f 9/20/13 29/28/13 10/18/13
f 29/28/2 11/16/2 10/18/2
f 30/26/14 12/13/14 11/16/14
f 12/13/4 32/24/4 9/45/4
f 33/21/8 17/34/8 20/31/8
f 34/19/2 18/36/2 17/34/2
f 35/17/7 19/38/7 18/36/7
f 36/15/4 20/46/4 19/38/4
f 57/47/1 40/48/1 58/49/1
f 58/49/2 44/50/2 59/51/2
f 44/50/3 60/52/3 59/51/3
f 42/53/4 57/54/4 60/52/4
f 43/55/5 37/56/5 39/57/5
f 40/58/6 42/53/6 44/50/6
f 48/59/4 69/60/4 72/61/4
f 47/62/7 72/61/7 71/63/7
f 46/64/2 71/63/2 70/65/2
f 45/66/8 70/65/8 69/67/8
f 67/68/4 49/69/4 68/70/4
f 51/71/9 67/68/9 66/72/9
f 50/73/2 66/72/2 65/74/2
f 49/75/10 65/74/10 68/76/10
f 56/77/8 61/78/8 64/79/8
f 53/80/2 62/81/2 61/78/2
f 54/82/7 63/83/7 62/81/7
f 55/84/4 64/85/4 63/83/4
f 52/86/4 57/54/4 49/69/4
f 51/71/15 60/52/15 52/86/15
f 58/49/2 51/71/2 50/73/2
f 57/47/12 50/73/12 49/75/12
f 63/83/4 37/87/4 41/88/4
f 62/81/7 41/88/7 43/55/7
f 61/78/2 43/55/2 39/89/2
f 64/79/8 39/89/8 37/90/8
f 45/66/13 65/74/13 46/64/13
f 65/74/2 47/62/2 46/64/2
f 66/72/14 48/59/14 47/62/14
f 48/59/4 68/70/4 45/91/4
f 69/67/8 53/80/8 56/77/8
f 70/65/2 54/82/2 53/80/2
f 71/63/7 55/84/7 54/82/7
f 72/61/4 56/92/4 55/84/4
f 93/93/1 76/94/1 94/95/1
f 94/95/2 80/96/2 95/97/2
f 80/96/3 96/98/3 95/97/3
f 78/99/4 93/100/4 96/98/4
f 79/101/5 73/102/5 75/103/5
f 76/104/6 78/99/6 80/96/6
f 84/105/4 105/106/4 108/107/4
f 83/108/7 108/107/7 107/109/7
f 82/110/2 107/109/2 106/111/2
f 81/112/8 106/111/8 105/113/8
f 103/114/4 85/115/4 104/116/4
f 87/117/9 103/114/9 102/118/9
f 86/119/2 102/118/2 101/120/2
f 85/121/10 101/120/10 104/122/10
f 92/123/8 97/124/8 100/125/8
f 89/126/2 98/127/2 97/124/2
f 90/128/7 99/129/7 98/127/7
f 91/130/4 100/131/4 99/129/4
f 88/132/4 93/100/4 85/115/4
f 95/97/15 88/132/15 87/117/15
f 94/95/2 87/117/2 86/119/2
f 93/93/12 86/119/12 85/121/12
f 99/129/4 73/133/4 77/134/4
f 98/127/7 77/134/7 79/101/7
f 97/124/2 79/101/2 75/135/2
f 100/125/8 75/135/8 73/136/8
f 104/122/13 82/110/13 81/112/13
f 101/120/2 83/108/2 82/110/2
f 102/118/14 84/105/14 83/108/14
f 84/105/4 104/116/4 81/137/4
f 105/113/8 89/126/8 92/123/8
f 106/111/2 90/128/2 89/126/2
f 107/109/7 91/130/7 90/128/7
f 108/107/4 92/138/4 91/130/4
f 129/139/1 112/140/1 130/141/1
f 130/141/2 116/142/2 131/143/2
f 116/142/3 132/144/3 131/143/3
f 114/145/4 129/146/4 132/144/4
f 115/147/5 109/148/5 111/149/5
f 112/150/6 114/145/6 116/142/6
f 120/151/4 141/152/4 144/153/4
f 119/154/7 144/153/7 143/155/7
f 118/156/2 143/155/2 142/157/2
f 117/158/8 142/157/8 141/159/8
f 139/160/4 121/161/4 140/162/4
f 123/163/9 139/160/9 138/164/9
f 122/165/2 138/164/2 137/166/2
f 121/167/10 137/166/10 140/168/10
f 128/169/8 133/170/8 136/171/8
f 125/172/2 134/173/2 133/170/2
f 126/174/7 135/175/7 134/173/7
f 127/176/4 136/177/4 135/175/4
f 124/178/4 129/146/4 121/161/4
f 131/143/15 124/178/15 123/163/15
f 130/141/2 123/163/2 122/165/2
f 129/139/12 122/165/12 121/167/12
f 135/175/4 109/179/4 113/180/4
f 134/173/7 113/180/7 115/147/7
f 133/170/2 115/147/2 111/181/2
f 136/171/8 111/181/8 109/182/8
f 140/168/13 118/156/13 117/158/13
f 137/166/2 119/154/2 118/156/2
f 138/164/14 120/151/14 119/154/14
f 120/151/4 140/162/4 117/183/4
f 141/159/8 125/172/8 128/169/8
f 142/157/2 126/174/2 125/172/2
f 143/155/7 127/176/7 126/174/7
f 144/153/4 128/184/4 127/176/4
f 165/185/1 148/186/1 166/187/1
f 166/187/2 152/188/2 167/189/2
f 167/189/3 150/190/3 168/191/3
f 150/190/4 165/192/4 168/191/4
f 151/193/5 145/194/5 147/195/5
f 148/196/6 150/190/6 152/188/6
f 156/197/4 177/198/4 180/199/4
f 155/200/7 180/199/7 179/201/7
f 154/202/2 179/201/2 178/203/2
f 153/204/8 178/203/8 177/205/8
f 175/206/4 157/207/4 176/208/4
f 159/209/9 175/206/9 174/210/9
f 158/211/2 174/210/2 173/212/2
f 176/213/10 158/211/10 173/212/10
f 164/214/8 169/215/8 172/216/8
f 161/217/2 170/218/2 169/215/2
f 162/219/7 171/220/7 170/218/7
f 163/221/4 172/222/4 171/220/4
f 160/223/4 165/192/4 157/207/4
f 167/189/11 160/223/11 159/209/11
f 166/187/2 159/209/2 158/211/2
f 165/185/12 158/211/12 157/224/12
f 171/220/4 145/225/4 149/226/4
f 170/218/7 149/226/7 151/193/7
f 169/215/2 151/193/2 147/227/2
f 172/216/8 147/227/8 145/228/8
f 176/213/13 154/202/13 153/204/13
f 173/212/2 155/200/2 154/202/2
f 174/210/14 156/197/14 155/200/14
f 156/197/4 176/208/4 153/229/4
f 177/205/8 161/217/8 164/214/8
f 178/203/2 162/219/2 161/217/2
f 179/201/7 163/221/7 162/219/7
f 180/199/4 164/230/4 163/221/4
f 2/1/1 4/231/1 22/2/1
f 22/2/2 4/231/2 8/4/2
f 8/4/3 6/7/3 24/6/3
f 6/7/4 2/232/4 21/8/4
f 7/9/5 5/42/5 1/10/5
f 4/12/6 2/233/6 6/7/6
f 12/13/4 9/45/4 33/14/4
f 11/16/7 12/13/7 36/15/7
f 10/18/2 11/16/2 35/17/2
f 9/20/8 10/18/8 34/19/8
f 31/22/4 16/40/4 13/23/4
f 15/25/9 16/40/9 31/22/9
f 14/27/2 15/25/2 30/26/2
f 13/29/10 14/27/10 29/28/10
f 20/31/8 17/34/8 25/32/8
f 17/34/2 18/36/2 26/35/2
f 18/36/7 19/38/7 27/37/7
f 19/38/4 20/46/4 28/39/4
f 16/40/4 24/6/4 21/8/4
f 15/25/11 23/5/11 24/6/11
f 22/2/2 23/5/2 15/25/2
f 21/3/12 22/2/12 14/27/12
f 27/37/4 28/39/4 1/41/4
f 26/35/7 27/37/7 5/42/7
f 25/32/2 26/35/2 7/9/2
f 28/33/8 25/32/8 3/43/8
f 9/20/13 32/30/13 29/28/13
f 29/28/2 30/26/2 11/16/2
f 30/26/14 31/22/14 12/13/14
f 12/13/4 31/22/4 32/24/4
f 33/21/8 34/19/8 17/34/8
f 34/19/2 35/17/2 18/36/2
f 35/17/7 36/15/7 19/38/7
f 36/15/4 33/14/4 20/46/4
f 57/47/1 38/234/1 40/48/1
f 58/49/2 40/48/2 44/50/2
f 44/50/3 42/53/3 60/52/3
f 42/53/4 38/235/4 57/54/4
f 43/55/5 41/88/5 37/56/5
f 40/58/6 38/236/6 42/53/6
f 48/59/4 45/91/4 69/60/4
f 47/62/7 48/59/7 72/61/7
f 46/64/2 47/62/2 71/63/2
f 45/66/8 46/64/8 70/65/8
f 67/68/4 52/86/4 49/69/4
f 51/71/9 52/86/9 67/68/9
f 50/73/2 51/71/2 66/72/2
f 49/75/10 50/73/10 65/74/10
f 56/77/8 53/80/8 61/78/8
f 53/80/2 54/82/2 62/81/2
f 54/82/7 55/84/7 63/83/7
f 55/84/4 56/92/4 64/85/4
f 52/86/4 60/52/4 57/54/4
f 51/71/11 59/51/11 60/52/11
f 58/49/2 59/51/2 51/71/2
f 57/47/12 58/49/12 50/73/12
f 63/83/4 64/85/4 37/87/4
f 62/81/7 63/83/7 41/88/7
f 61/78/2 62/81/2 43/55/2
f 64/79/8 61/78/8 39/89/8
f 45/66/13 68/76/13 65/74/13
f 65/74/2 66/72/2 47/62/2
f 66/72/14 67/68/14 48/59/14
f 48/59/4 67/68/4 68/70/4
f 69/67/8 70/65/8 53/80/8
f 70/65/2 71/63/2 54/82/2
f 71/63/7 72/61/7 55/84/7
f 72/61/4 69/60/4 56/92/4
f 93/93/1 74/237/1 76/94/1
f 94/95/2 76/94/2 80/96/2
f 80/96/3 78/99/3 96/98/3
f 78/99/4 74/238/4 93/100/4
f 79/101/5 77/134/5 73/102/5
f 76/104/6 74/239/6 78/99/6
f 84/105/4 81/137/4 105/106/4
f 83/108/7 84/105/7 108/107/7
f 82/110/2 83/108/2 107/109/2
f 81/112/8 82/110/8 106/111/8
f 103/114/4 88/132/4 85/115/4
f 87/117/9 88/132/9 103/114/9
f 86/119/2 87/117/2 102/118/2
f 85/121/10 86/119/10 101/120/10
f 92/123/8 89/126/8 97/124/8
f 89/126/2 90/128/2 98/127/2
f 90/128/7 91/130/7 99/129/7
f 91/130/4 92/138/4 100/131/4
f 88/132/4 96/98/4 93/100/4
f 95/97/11 96/98/11 88/132/11
f 94/95/2 95/97/2 87/117/2
f 93/93/12 94/95/12 86/119/12
f 99/129/4 100/131/4 73/133/4
f 98/127/7 99/129/7 77/134/7
f 97/124/2 98/127/2 79/101/2
f 100/125/8 97/124/8 75/135/8
f 104/122/13 101/120/13 82/110/13
f 101/120/2 102/118/2 83/108/2
f 102/118/14 103/114/14 84/105/14
f 84/105/4 103/114/4 104/116/4
f 105/113/8 106/111/8 89/126/8
f 106/111/2 107/109/2 90/128/2
f 107/109/7 108/107/7 91/130/7
f 108/107/4 105/106/4 92/138/4
f 129/139/1 110/240/1 112/140/1
f 130/141/2 112/140/2 116/142/2
f 116/142/3 114/145/3 132/144/3
f 114/145/4 110/241/4 129/146/4
f 115/147/5 113/180/5 109/148/5
f 112/150/6 110/242/6 114/145/6
f 120/151/4 117/183/4 141/152/4
f 119/154/7 120/151/7 144/153/7
f 118/156/2 119/154/2 143/155/2
f 117/158/8 118/156/8 142/157/8
f 139/160/4 124/178/4 121/161/4
f 123/163/9 124/178/9 139/160/9
f 122/165/2 123/163/2 138/164/2
f 121/167/10 122/165/10 137/166/10
f 128/169/8 125/172/8 133/170/8
f 125/172/2 126/174/2 134/173/2
f 126/174/7 127/176/7 135/175/7
f 127/176/4 128/184/4 136/177/4
f 124/178/4 132/144/4 129/146/4
f 131/143/11 132/144/11 124/178/11
f 130/141/2 131/143/2 123/163/2
f 129/139/12 130/141/12 122/165/12
f 135/175/4 136/177/4 109/179/4
f 134/173/7 135/175/7 113/180/7
f 133/170/2 134/173/2 115/147/2
f 136/171/8 133/170/8 111/181/8
f 140/168/13 137/166/13 118/156/13
f 137/166/2 138/164/2 119/154/2
f 138/164/14 139/160/14 120/151/14
f 120/151/4 139/160/4 140/162/4
f 141/159/8 142/157/8 125/172/8
f 142/157/2 143/155/2 126/174/2
f 143/155/7 144/153/7 127/176/7
f 144/153/4 141/152/4 128/184/4
f 165/185/1 146/243/1 148/186/1
f 166/187/2 148/186/2 152/188/2
f 167/189/3 152/188/3 150/190/3
f 150/190/4 146/244/4 165/192/4
f 151/193/5 149/226/5 145/194/5
f 148/196/6 146/245/6 150/190/6
f 156/197/4 153/229/4 177/198/4
f 155/200/7 156/197/7 180/199/7
f 154/202/2 155/200/2 179/201/2
f 153/204/8 154/202/8 178/203/8
f 175/206/4 160/223/4 157/207/4
f 159/209/9 160/223/9 175/206/9
f 158/211/2 159/209/2 174/210/2
f 176/213/10 157/224/10 158/211/10
f 164/214/8 161/217/8 169/215/8
f 161/217/2 162/219/2 170/218/2
f 162/219/7 163/221/7 171/220/7
f 163/221/4 164/230/4 172/222/4
f 160/223/4 168/191/4 165/192/4
f 167/189/11 168/191/11 160/223/11
f 166/187/2 167/189/2 159/209/2
f 165/185/12 166/187/12 158/211/12
f 171/220/4 172/222/4 145/225/4
f 170/218/7 171/220/7 149/226/7
f 169/215/2 170/218/2 151/193/2
f 172/216/8 169/215/8 147/227/8
f 176/213/13 173/212/13 154/202/13
f 173/212/2 174/210/2 155/200/2
f 174/210/14 175/206/14 156/197/14
f 156/197/4 175/206/4 176/208/4
f 177/205/8 178/203/8 161/217/8
f 178/203/2 179/201/2 162/219/2
f 179/201/7 180/199/7 163/221/7
f 180/199/4 177/198/4 164/230/4
