# Blender 4.3.1
# www.blender.org
mtllib player.mtl
o player
v 0.875209 1.186268 0.344437
v 0.875209 1.186268 0.344437
v 0.875209 1.186268 0.344437
v 0.875209 1.875141 0.344437
v 0.875209 1.875141 0.344437
v 0.875209 1.875141 0.344437
v 0.875209 1.186268 -0.344437
v 0.875209 1.186268 -0.344437
v 0.875209 1.186268 -0.344437
v 0.875209 1.875141 -0.344437
v 0.875209 1.875141 -0.344437
v 0.875209 1.875141 -0.344437
v 1.850490 1.186268 0.344437
v 1.850490 1.186268 0.344437
v 1.850490 1.186268 0.344437
v 1.850490 1.875141 0.344437
v 1.850490 1.875141 0.344437
v 1.850490 1.875141 0.344437
v 1.850490 1.186268 -0.344437
v 1.850490 1.186268 -0.344437
v 1.850490 1.186268 -0.344437
v 1.850490 1.875141 -0.344437
v 1.850490 1.875141 -0.344437
v 1.850490 1.875141 -0.344437
v 1.000000 2.312596 -1.000000
v 1.000000 2.312596 -1.000000
v 1.000000 2.312596 -1.000000
v 1.000000 0.312596 -1.000000
v 1.000000 0.312596 -1.000000
v 1.000000 0.312596 -1.000000
v 1.000000 2.312596 1.000000
v 1.000000 2.312596 1.000000
v 1.000000 2.312596 1.000000
v 1.000000 0.312596 1.000000
v 1.000000 0.312596 1.000000
v 1.000000 0.312596 1.000000
v -1.000000 2.312596 -1.000000
v -1.000000 2.312596 -1.000000
v -1.000000 2.312596 -1.000000
v -1.000000 0.312596 -1.000000
v -1.000000 0.312596 -1.000000
v -1.000000 0.312596 -1.000000
v -1.000000 2.312596 1.000000
v -1.000000 2.312596 1.000000
v -1.000000 2.312596 1.000000
v -1.000000 0.312596 1.000000
v -1.000000 0.312596 1.000000
v -1.000000 0.312596 1.000000
v -0.909810 -0.001427 1.077423
v -0.909810 -0.001427 1.077423
v -0.909810 -0.001427 1.077423
v -0.909810 0.165618 1.077423
v -0.909810 0.165618 1.077423
v -0.909810 0.165618 1.077423
v -0.909810 -0.001427 -0.612058
v -0.909810 -0.001427 -0.612058
v -0.909810 -0.001427 -0.612058
v -0.909810 0.429477 -0.612058
v -0.909810 0.429477 -0.612058
v -0.909810 0.429477 -0.612058
v -0.149580 -0.001426 1.077423
v -0.149580 -0.001426 1.077423
v -0.149580 -0.001426 1.077423
v -0.149580 0.165618 1.077423
v -0.149580 0.165618 1.077423
v -0.149580 0.165618 1.077423
v -0.149580 -0.001426 -0.612058
v -0.149580 -0.001426 -0.612058
v -0.149580 -0.001426 -0.612058
v -0.149580 0.429477 -0.612058
v -0.149580 0.429477 -0.612058
v -0.149580 0.429477 -0.612058
v 0.157842 -0.001426 1.077424
v 0.157842 -0.001426 1.077424
v 0.157842 -0.001426 1.077424
v 0.157842 0.165618 1.077424
v 0.157842 0.165618 1.077424
v 0.157842 0.165618 1.077424
v 0.157842 -0.001426 -0.612058
v 0.157842 -0.001426 -0.612058
v 0.157842 -0.001426 -0.612058
v 0.157843 0.429477 -0.612059
v 0.157843 0.429477 -0.612059
v 0.157843 0.429477 -0.612059
v 0.918072 -0.001426 1.077424
v 0.918072 -0.001426 1.077424
v 0.918072 -0.001426 1.077424
v 0.918072 0.165618 1.077424
v 0.918072 0.165618 1.077424
v 0.918072 0.165618 1.077424
v 0.918072 -0.001427 -0.612058
v 0.918072 -0.001427 -0.612058
v 0.918072 -0.001427 -0.612058
v 0.918072 0.429477 -0.612058
v 0.918072 0.429477 -0.612058
v 0.918072 0.429477 -0.612058
v -1.864424 1.186268 0.344437
v -1.864424 1.186268 0.344437
v -1.864424 1.186268 0.344437
v -1.864424 1.875142 0.344437
v -1.864424 1.875142 0.344437
v -1.864424 1.875142 0.344437
v -1.864424 1.186268 -0.344437
v -1.864424 1.186268 -0.344437
v -1.864424 1.186268 -0.344437
v -1.864424 1.875142 -0.344437
v -1.864424 1.875142 -0.344437
v -1.864424 1.875142 -0.344437
v -0.889142 1.186268 0.344437
v -0.889142 1.186268 0.344437
v -0.889142 1.186268 0.344437
v -0.889142 1.875142 0.344437
v -0.889142 1.875142 0.344437
v -0.889142 1.875142 0.344437
v -0.889142 1.186268 -0.344437
v -0.889142 1.186268 -0.344437
v -0.889142 1.186268 -0.344437
v -0.889142 1.875142 -0.344437
v -0.889142 1.875142 -0.344437
v -0.889142 1.875142 -0.344437
v 0.112486 1.127170 1.030424
v 0.112486 1.127170 1.030424
v 0.112486 1.127170 1.030424
v 0.112486 1.315808 1.030424
v 0.112486 1.315808 1.030424
v 0.112486 1.315808 1.030424
v 0.112486 1.127170 0.947883
v 0.112486 1.127170 0.947883
v 0.112486 1.127170 0.947883
v 0.112486 1.315808 0.947883
v 0.112486 1.315808 0.947883
v 0.112486 1.315808 0.947883
v 0.301123 1.127170 1.030424
v 0.301123 1.127170 1.030424
v 0.301123 1.127170 1.030424
v 0.301123 1.315808 1.030424
v 0.301123 1.315808 1.030424
v 0.301123 1.315808 1.030424
v 0.301123 1.127170 0.947883
v 0.301123 1.127170 0.947883
v 0.301123 1.127170 0.947883
v 0.301123 1.315808 0.947883
v 0.301123 1.315808 0.947883
v 0.301123 1.315808 0.947883
v 0.401679 1.542620 1.030424
v 0.401679 1.542620 1.030424
v 0.401679 1.542620 1.030424
v 0.401679 2.046076 1.030424
v 0.401679 2.046076 1.030424
v 0.401679 2.046076 1.030424
v 0.401679 1.542620 0.947883
v 0.401679 1.542620 0.947883
v 0.401679 1.542620 0.947883
v 0.401679 2.046076 0.947883
v 0.401679 2.046076 0.947883
v 0.401679 2.046076 0.947883
v 0.590317 1.542620 1.030424
v 0.590317 1.542620 1.030424
v 0.590317 1.542620 1.030424
v 0.590317 2.046076 1.030424
v 0.590317 2.046076 1.030424
v 0.590317 2.046076 1.030424
v 0.590317 1.542620 0.947883
v 0.590317 1.542620 0.947883
v 0.590317 1.542620 0.947883
v 0.590317 2.046076 0.947883
v 0.590317 2.046076 0.947883
v 0.590317 2.046076 0.947883
v -0.524946 1.542620 1.030424
v -0.524946 1.542620 1.030424
v -0.524946 1.542620 1.030424
v -0.524946 2.046076 1.030424
v -0.524946 2.046076 1.030424
v -0.524946 2.046076 1.030424
v -0.524946 1.542620 0.947883
v -0.524946 1.542620 0.947883
v -0.524946 1.542620 0.947883
v -0.524946 2.046076 0.947883
v -0.524946 2.046076 0.947883
v -0.524946 2.046076 0.947883
v -0.336309 1.542620 1.030424
v -0.336309 1.542620 1.030424
v -0.336309 1.542620 1.030424
v -0.336309 2.046076 1.030424
v -0.336309 2.046076 1.030424
v -0.336309 2.046076 1.030424
v -0.336309 1.542620 0.947883
v -0.336309 1.542620 0.947883
v -0.336309 1.542620 0.947883
v -0.336309 2.046076 0.947883
v -0.336309 2.046076 0.947883
v -0.336309 2.046076 0.947883
vn -1.0000 -0.0000 -0.0000
vn -0.0000 -0.0000 -1.0000
vn 1.0000 -0.0000 -0.0000
vn -0.0000 -0.0000 1.0000
vn -0.0000 -1.0000 -0.0000
vn -0.0000 1.0000 -0.0000
vn -0.0000 0.9880 0.1543
vt 0.325877 0.122275
vt 0.213186 0.234966
vt 0.213186 0.122275
vt 0.325877 0.234966
vt 0.213186 0.347656
vt 0.325877 0.347656
vt 0.213186 0.460347
vt 0.325877 0.460347
vt 0.213186 0.573038
vt 0.100495 0.460347
vt 0.100495 0.347656
vt 0.438567 0.347656
vt 0.000000 0.000000
vt 0.325877 0.573038
vt 0.438567 0.460347
vt 0.787450 0.733313
vt 0.706245 0.657029
s 0
usemtl マテリアル
f 6/1/1 9/2/1 3/3/1
f 10/4/2 19/5/2 7/2/2
f 24/6/3 15/7/3 21/5/3
f 16/8/4 1/9/4 13/7/4
f 20/5/5 2/10/5 8/11/5
f 11/12/6 17/8/6 23/6/6
f 38/13/6 32/13/6 26/13/6
f 31/13/4 46/13/4 34/13/4
f 45/13/1 42/13/1 48/13/1
f 29/13/5 47/13/5 41/13/5
f 27/13/3 36/13/3 30/13/3
f 37/13/2 28/13/2 40/13/2
f 54/1/1 57/2/1 51/3/1
f 58/4/2 67/5/2 55/2/2
f 69/5/3 66/8/3 63/7/3
f 64/8/4 49/9/4 61/7/4
f 68/5/5 50/10/5 56/11/5
f 59/12/7 65/8/7 71/6/7
f 78/1/1 81/2/1 75/3/1
f 82/4/2 91/5/2 79/2/2
f 93/5/3 90/8/3 87/7/3
f 88/8/4 73/9/4 85/7/4
f 92/5/5 74/10/5 80/11/5
f 83/12/7 89/8/7 95/6/7
f 102/1/1 105/2/1 99/3/1
f 106/4/2 115/5/2 103/2/2
f 120/6/3 111/7/3 117/5/3
f 112/8/4 97/9/4 109/7/4
f 116/5/5 98/10/5 104/11/5
f 107/12/6 113/8/6 119/6/6
f 6/1/1 12/4/1 9/2/1
f 10/4/2 22/6/2 19/5/2
f 24/6/3 18/8/3 15/7/3
f 16/8/4 4/14/4 1/9/4
f 20/5/5 14/7/5 2/10/5
f 11/12/6 5/15/6 17/8/6
f 38/13/6 44/13/6 32/13/6
f 31/13/4 43/13/4 46/13/4
f 45/13/1 39/13/1 42/13/1
f 29/13/5 35/13/5 47/13/5
f 27/13/3 33/13/3 36/13/3
f 37/13/2 25/13/2 28/13/2
f 54/1/1 60/4/1 57/2/1
f 58/4/2 70/6/2 67/5/2
f 69/5/3 72/6/3 66/8/3
f 64/8/4 52/14/4 49/9/4
f 68/5/5 62/7/5 50/10/5
f 59/12/7 53/15/7 65/8/7
f 78/1/1 84/4/1 81/2/1
f 82/4/2 94/6/2 91/5/2
f 93/5/3 96/6/3 90/8/3
f 88/8/4 76/14/4 73/9/4
f 92/5/5 86/7/5 74/10/5
f 83/12/7 77/15/7 89/8/7
f 102/1/1 108/4/1 105/2/1
f 106/4/2 118/6/2 115/5/2
f 120/6/3 114/8/3 111/7/3
f 112/8/4 100/14/4 97/9/4
f 116/5/5 110/7/5 98/10/5
f 107/12/6 101/15/6 113/8/6
f 126/16/1 129/16/1 123/16/1
f 130/13/2 139/13/2 127/13/2
f 144/16/3 135/16/3 141/16/3
f 136/16/4 121/16/4 133/16/4
f 140/16/5 122/16/5 128/16/5
f 131/16/6 137/16/6 143/16/6
f 126/16/1 132/16/1 129/16/1
f 130/13/2 142/13/2 139/13/2
f 144/16/3 138/16/3 135/16/3
f 136/16/4 124/16/4 121/16/4
f 140/16/5 134/16/5 122/16/5
f 131/16/6 125/16/6 137/16/6
f 150/16/1 153/16/1 147/16/1
f 154/17/2 163/17/2 151/17/2
f 168/16/3 159/16/3 165/16/3
f 160/16/4 145/16/4 157/16/4
f 164/16/5 146/16/5 152/16/5
f 155/16/6 161/16/6 167/16/6
f 150/16/1 156/16/1 153/16/1
f 154/17/2 166/17/2 163/17/2
f 168/16/3 162/16/3 159/16/3
f 160/16/4 148/16/4 145/16/4
f 164/16/5 158/16/5 146/16/5
f 155/16/6 149/16/6 161/16/6
f 174/16/1 177/16/1 171/16/1
f 178/13/2 187/13/2 175/13/2
f 192/16/3 183/16/3 189/16/3
f 184/16/4 169/16/4 181/16/4
f 188/16/5 170/16/5 176/16/5
f 179/16/6 185/16/6 191/16/6
f 174/16/1 180/16/1 177/16/1
f 178/13/2 190/13/2 187/13/2
f 192/16/3 186/16/3 183/16/3
f 184/16/4 172/16/4 169/16/4
f 188/16/5 182/16/5 170/16/5
f 179/16/6 173/16/6 185/16/6
